<svg width="138" height="138" viewBox="0 0 138 138" fill="none" xmlns="http://www.w3.org/2000/svg">
<path d="M68.5713 133.714C104.549 133.714 133.714 104.549 133.714 68.5713C133.714 32.5939 104.549 3.42847 68.5713 3.42847C32.5939 3.42847 3.42847 32.5939 3.42847 68.5713C3.42847 104.549 32.5939 133.714 68.5713 133.714Z" fill="#FFE9DB"/>
<path fill-rule="evenodd" clip-rule="evenodd" d="M68.5714 6.62725C34.3606 6.62725 6.62725 34.3606 6.62725 68.5714C6.62725 102.782 34.3606 130.516 68.5714 130.516C102.782 130.516 130.516 102.782 130.516 68.5714C130.516 34.3606 102.782 6.62725 68.5714 6.62725ZM0 68.5714C0 30.7004 30.7005 0 68.5714 0C106.442 0 137.143 30.7004 137.143 68.5714C137.143 106.442 106.442 137.143 68.5714 137.143C30.7005 137.143 0 106.442 0 68.5714Z" fill="#90DADE"/>
<path d="M44.6801 24.7752C43.9775 24.7752 43.2748 24.8832 42.6262 25.0992C41.9776 25.3152 41.329 25.6392 40.6804 26.1253C40.1399 26.5573 39.7075 27.0434 39.3832 27.5294C39.0589 28.0695 38.8967 28.6095 38.7886 29.2036C38.7346 29.7976 38.7345 30.3377 38.8967 30.9317C39.0588 31.5258 39.3291 32.0658 39.7075 32.5519C40.0858 33.0379 40.5182 33.4699 41.0587 33.74C41.5992 34.064 42.1397 34.226 42.6802 34.334C43.2748 34.388 43.8153 34.388 44.4099 34.226C45.0044 34.064 45.599 33.794 46.1395 33.3619C46.7341 32.8759 47.2746 32.3899 47.5989 31.8498C47.9772 31.3098 48.2475 30.6617 48.5177 29.9596L52.5716 35.3061C52.1391 36.2242 51.5986 36.9262 51.0581 37.5743C50.4635 38.1683 49.9771 38.6544 49.4907 38.9784C48.3015 39.8425 47.0584 40.4906 45.7071 40.8146C44.3558 41.1386 43.0045 41.2466 41.5992 41.0306C40.248 40.8146 38.8967 40.3825 37.6535 39.6265C36.4104 38.8704 35.2753 37.8983 34.3024 36.6022C33.3295 35.3601 32.6809 34.01 32.3566 32.6059C31.9782 31.2017 31.9242 29.7976 32.0863 28.4475C32.2485 27.0974 32.6809 25.7473 33.3835 24.5592C34.0862 23.3171 35.005 22.2909 36.1942 21.3729C36.7887 20.9408 37.4373 20.5628 38.194 20.1848C38.9507 19.8607 39.7615 19.5907 40.5723 19.4287L44.6801 24.7752Z" fill="#FF6C4D"/>
<path d="M50.2858 13.1767L56.8825 12.1403L58.037 19.504L63.2594 18.6858L62.1049 11.3221L68.7017 10.2858L72.0001 31.3949L65.4033 32.4312L64.2489 25.013L59.0265 25.8312L60.1809 33.2494L53.5841 34.2858L50.2858 13.1767Z" fill="#FF6C4D"/>
<path d="M79.8766 12.5714L92.5714 16.6519L90.6948 22.2358L84.3474 20.1956L83.7954 21.86L90.1428 23.9003L88.3214 29.2694L81.974 27.2291L81.3668 28.9472L87.7694 30.9875L85.8928 36.5714L73.1428 32.4909L79.8766 12.5714Z" fill="#FF6C4D"/>
<path d="M100.984 21.7145L110.857 30.154L106.875 34.4793L101.912 30.2595L100.712 31.5782L105.675 35.798L101.857 39.965L96.8936 35.7452L95.639 37.1167L100.657 41.3892L96.6754 45.7145L86.8572 37.1167L100.984 21.7145Z" fill="#FF6C4D"/>
<path d="M116.917 38.8573L122.286 50.5894L117.075 53.0537L114.391 47.1609L112.812 47.9109L115.496 53.8037L110.496 56.1609L107.812 50.268L106.181 51.018L108.865 56.9645L103.654 59.4287L98.2859 47.643L116.917 38.8573Z" fill="#FF6C4D"/>
<path d="M125.279 59.4287L125.714 73.4733L119.728 73.7055L119.51 66.6832L117.714 66.7412L117.932 73.7635L112.218 73.9376L112 66.9153L110.15 66.9733L110.367 74.0537L104.435 74.2859L104 60.1832L125.279 59.4287Z" fill="#FF6C4D"/>
<path d="M123.429 82.946L118.777 94.8573L113.385 92.7397L115.711 86.7576L114.072 86.1224L111.746 92.1045L106.565 90.0928L108.891 84.1107L107.2 83.4754L104.821 89.5104L99.4287 87.3929L104.134 75.4287L123.429 82.946Z" fill="#FF6C4D"/>
<path d="M113.143 103.908L104.056 113.143L99.8867 109.009L104.43 104.391L103.201 103.156L98.6573 107.774L94.6484 103.801L99.1918 99.1833L97.909 97.8947L93.3121 102.566L89.1428 98.4316L98.2831 89.143L113.143 103.908Z" fill="#FF6C4D"/>
<path d="M95.9999 118.389L83.5794 123.429L81.306 117.78L87.5163 115.288L86.8509 113.571L80.6406 116.063L78.4781 110.691L84.6884 108.199L83.9675 106.427L77.7018 108.974L75.4285 103.325L87.9044 98.2858L95.9999 118.389Z" fill="#FF6C4D"/>
<path d="M73.7942 124.571L60.5717 124.312L60.6809 118.612L67.2922 118.768L67.3468 117.058L60.7356 116.902L60.8448 111.462L67.4561 111.617L67.5107 109.855L60.8448 109.7L60.9541 104L74.2859 104.311L73.7942 124.571Z" fill="#FF6C4D"/>
<path d="M50.7046 122.286L38.8572 117.046L41.2805 111.805L47.2042 114.426L47.9581 112.853L42.0344 110.233L44.4039 105.203L50.3276 107.823L51.0816 106.198L45.104 103.526L47.5273 98.2858L59.4286 103.578L50.7046 122.286Z" fill="#FF6C4D"/>
<path d="M30.7456 110.857L21.7142 101.181L26.2299 97.1814L30.7456 102.046L32.0836 100.857L27.5679 95.9922L31.9163 92.1544L36.432 97.0192L37.8257 95.776L33.2543 90.857L37.77 86.8571L46.8571 96.5868L30.7456 110.857Z" fill="#FF6C4D"/>
<path d="M29.2615 88.8421C29.3649 88.2803 29.4682 87.6623 29.5716 86.9882C29.675 86.314 29.7267 85.6398 29.7267 84.9656C29.7267 84.2914 29.7267 83.5611 29.675 82.8869C29.6233 82.1565 29.4682 81.4823 29.3132 80.8082C29.1581 80.1902 28.8997 79.6845 28.6929 79.3474C28.4345 79.0103 28.1243 78.898 27.7625 79.0103C27.4524 79.1227 27.2973 79.4036 27.2456 79.9654C27.2456 80.4711 27.2456 81.1452 27.349 81.8756C27.4524 82.6621 27.5041 83.4487 27.5558 84.3476C27.6075 85.2465 27.5041 86.1454 27.2973 86.9882C27.0906 87.8309 26.6771 88.6174 26.0568 89.3478C25.4365 90.0782 24.5578 90.64 23.3173 91.0332C22.1285 91.4265 21.043 91.5389 20.0609 91.3142C19.0788 91.0894 18.2001 90.6961 17.4765 90.0219C16.7012 89.404 16.0809 88.6174 15.564 87.7185C15.0471 86.8196 14.6336 85.8083 14.3752 84.7971C14.0134 83.5611 13.8066 82.3251 13.7549 81.0329C13.6515 79.7407 13.7549 78.3923 13.9616 77.044L19.8025 75.1338C19.6991 75.6394 19.5957 76.2013 19.544 76.8754C19.4407 77.5496 19.4406 78.2238 19.389 78.898C19.389 79.5722 19.389 80.2463 19.4407 80.9767C19.4923 81.6509 19.5957 82.2689 19.7508 82.8869C19.9058 83.5049 20.1126 83.8981 20.371 84.2352C20.5778 84.5161 20.8879 84.6285 21.1981 84.5161C21.5082 84.4038 21.715 84.0667 21.7666 83.561C21.8183 82.9992 21.7666 82.3812 21.7149 81.5947C21.6632 80.8081 21.6116 79.9654 21.5599 79.0665C21.5082 78.1676 21.6116 77.2687 21.8183 76.3698C22.0251 75.5271 22.4386 74.6843 22.9555 74.0102C23.5241 73.2798 24.3511 72.7742 25.4882 72.3809C26.7804 71.9876 27.9176 71.8753 28.8997 72.1562C29.9334 72.4371 30.8121 72.8865 31.5875 73.6169C32.3628 74.2911 32.9831 75.1338 33.5 76.0889C34.0168 77.044 34.4303 77.9991 34.6888 79.0103C34.9989 80.1902 35.2574 81.4824 35.3607 82.8869C35.4641 84.2914 35.4641 85.6398 35.2574 86.9882L29.2615 88.8421Z" fill="#FF6C4D"/>
<path d="M11.4287 66.6334L13.3244 53.7145L19.1742 54.5793L18.1992 61.0658L19.9866 61.3361L20.9616 54.8496L26.5946 55.6604L25.6196 62.1469L27.4612 62.4172L28.4362 55.8766L34.2859 56.7415L32.3901 69.7145L11.4287 66.6334Z" fill="#FF6C4D"/>
<path d="M28.7973 51.0633L16.0001 45.6082L19.0603 40.0001L31.468 46.22L28.7973 51.0633ZM35.8079 47.7494C36.253 47.9534 36.5868 48.2083 36.865 48.5142C37.1432 48.8201 37.3658 49.177 37.5327 49.5848C37.644 49.9417 37.7552 50.3496 37.6996 50.8084C37.6996 51.2163 37.5327 51.6241 37.3658 52.032C37.1432 52.4399 36.865 52.7458 36.5312 53.0007C36.1973 53.2556 35.8078 53.4595 35.3627 53.5615C34.9733 53.6634 34.5282 53.7144 34.0274 53.7144C33.5823 53.7144 33.1372 53.5615 32.692 53.3575C32.2469 53.1536 31.9131 52.8987 31.6349 52.5928C31.3567 52.2869 31.1341 51.93 30.9672 51.5222C30.8003 51.1143 30.7447 50.7574 30.8003 50.2986C30.8003 49.8907 30.9672 49.4829 31.1341 49.075C31.3567 48.6671 31.6349 48.3612 31.9687 48.1063C32.3026 47.8514 32.692 47.6475 33.1371 47.5455C33.5823 47.4436 33.9718 47.3926 34.4725 47.3926C34.9176 47.3926 35.3628 47.5455 35.8079 47.7494Z" fill="#FF6C4D"/>
<path d="M59.9999 65.1427C62.209 65.1427 63.9999 63.3518 63.9999 61.1427C63.9999 58.9336 62.209 57.1427 59.9999 57.1427C57.7908 57.1427 55.9999 58.9336 55.9999 61.1427C55.9999 63.3518 57.7908 65.1427 59.9999 65.1427Z" fill="#3975FC"/>
<path d="M75.4285 62.8571C77.9532 62.8571 79.9999 61.0662 79.9999 58.8571C79.9999 56.6479 77.9532 54.8571 75.4285 54.8571C72.9037 54.8571 70.8571 56.6479 70.8571 58.8571C70.8571 61.0662 72.9037 62.8571 75.4285 62.8571Z" fill="#3975FC"/>
<path d="M68.723 84.5711C61.466 84.5711 55.1436 79.1774 54.0991 71.8022L53.7142 69.0503L59.157 68.3348L59.5418 71.0867C60.2015 76.1503 64.8746 79.6727 69.9325 79.0122C74.9904 78.3518 78.509 73.6735 77.8492 68.61L77.4644 65.8581L82.9072 65.1426L83.292 67.8945C84.3915 75.9852 78.7289 83.4153 70.6472 84.5161C70.0425 84.5161 69.3827 84.5711 68.723 84.5711Z" fill="#3975FC"/>
<path d="M68.5155 95.9999C62.565 95.9999 56.7753 94.0305 51.9506 90.256C46.1073 85.7155 42.3548 79.1511 41.3898 71.7661C40.4249 64.381 42.3012 56.996 46.7506 51.0333C51.2001 45.0705 57.633 41.2413 64.8701 40.2566C79.8267 38.1778 93.7112 48.9545 95.7483 64.2169C97.7854 79.534 87.2246 93.6476 72.268 95.7264C70.9814 95.9452 69.7484 95.9999 68.5155 95.9999ZM68.569 45.5082C67.6041 45.5082 66.5856 45.5629 65.6206 45.727C59.7773 46.5475 54.5774 49.6109 51.0392 54.3702C47.4475 59.1294 45.9465 65.0375 46.7506 71.0002C47.5547 76.9629 50.5568 82.2692 55.2207 85.8797C59.8845 89.5448 65.6742 91.0765 71.5175 90.256C83.5793 88.6148 92.0493 77.2364 90.3875 64.9281C88.8865 53.7138 79.3978 45.5082 68.569 45.5082Z" fill="#3975FC"/>
</svg>
