<svg width="96" height="96" viewBox="0 0 96 96" fill="none" xmlns="http://www.w3.org/2000/svg">
<path d="M52 12H16C7.2 12 0 19.2 0 28V80C0 88.8 7.2 96 16 96H68C76.8 96 84 88.8 84 80V44C84 41.8 82.2 40 80 40C77.8 40 76 41.8 76 44V62.3L62.8 49.2C61.2 47.6 58.7 47.6 57.1 49.2L48 58.3L34.8 45.2C33.2 43.6 30.7 43.6 29.1 45.2L8 66.3V28C8 23.6 11.6 20 16 20H52C54.2 20 56 18.2 56 16C56 13.8 54.2 12 52 12ZM32 53.7L45.2 66.9C46.8 68.5 49.3 68.5 50.9 66.9L60.1 57.7L76.1 73.7V80C76.1 84.4 72.5 88 68.1 88H16C11.6 88 8 84.4 8 80V77.7L32 53.7Z" fill="#1A1A1A"/>
<path d="M50 40C53.3137 40 56 37.3137 56 34C56 30.6863 53.3137 28 50 28C46.6863 28 44 30.6863 44 34C44 37.3137 46.6863 40 50 40Z" fill="#1A1A1A"/>
</svg>
