<svg width="40" height="40" viewBox="0 0 40 40" fill="none" xmlns="http://www.w3.org/2000/svg">
<path d="M32.7016 39.5294H6.82781C3.05455 39.5294 0 36.4749 0 32.7016V6.82781C0 3.05455 3.05455 0 6.82781 0H32.7216C36.4749 0 39.5294 3.05455 39.5294 6.82781V32.7216C39.5294 36.4749 36.4749 39.5294 32.7016 39.5294ZM6.82781 1.99644C4.15259 1.99644 1.99644 4.15259 1.99644 6.82781V32.7216C1.99644 35.3768 4.15259 37.5529 6.82781 37.5529H32.7216C35.3768 37.5529 37.5529 35.3968 37.5529 32.7216V6.82781C37.5529 4.17255 35.3968 1.99644 32.7216 1.99644H6.82781Z" fill="#FF6C4D"/>
<path d="M16.6703 9.98216L19.665 5.62993H23.9573L19.7049 11.3996L24.2368 17.5486H19.625L16.6703 13.2563V17.5486H12.937V5.62993H16.6703V9.98216Z" fill="#FF6C4D"/>
<path d="M30.0462 17.6884C29.2875 17.6884 28.6087 17.5686 28.0098 17.349C27.4109 17.1294 26.8918 16.79 26.4526 16.3907C26.0333 15.9714 25.694 15.4723 25.4544 14.8734C25.2148 14.2744 25.095 13.5957 25.095 12.857V5.76963H28.7685V12.6374C28.7685 13.6556 29.1877 14.1547 30.0462 14.1547C30.8847 14.1547 31.3239 13.6556 31.3239 12.6374V5.76963H34.9973V12.837C34.9973 13.5757 34.8775 14.2545 34.638 14.8534C34.3984 15.4523 34.079 15.9714 33.6398 16.3707C33.2205 16.79 32.7014 17.1094 32.0825 17.329C31.4836 17.5686 30.8048 17.6884 30.0462 17.6884Z" fill="#FF6C4D"/>
<path d="M19.0862 19.7647C19.7251 19.7647 20.324 19.8446 20.863 20.0242C21.4021 20.2039 21.8812 20.4435 22.2805 20.7829C22.6798 21.1023 22.9992 21.5016 23.2188 21.9808C23.4384 22.4599 23.5582 22.979 23.5582 23.5779C23.5582 24.1768 23.4185 24.6959 23.119 25.1551C22.8395 25.6143 22.4602 25.9736 21.981 26.2332C22.7996 26.5127 23.4384 26.9319 23.8776 27.5109C24.3169 28.0898 24.5165 28.7886 24.5165 29.5872C24.5165 30.226 24.3967 30.805 24.1571 31.3041C23.9176 31.8232 23.5981 32.2624 23.1589 32.6218C22.7197 32.9811 22.1807 33.2606 21.5618 33.4403C20.9229 33.6399 20.2042 33.7398 19.4056 33.7398H13.2167V19.7647H19.0862ZM18.4274 24.8955C18.6869 24.8955 18.9265 24.8357 19.0862 24.7159C19.2659 24.5961 19.3657 24.3765 19.3657 24.077C19.3657 23.7775 19.2659 23.5579 19.0862 23.4382C18.9065 23.3184 18.6869 23.2585 18.4274 23.2585H17.4292V24.8955H18.4274ZM19.0063 30.1861C19.3457 30.1861 19.6252 30.1062 19.8448 29.9865C20.0645 29.8467 20.1842 29.6071 20.1842 29.2478C20.1842 28.9084 20.0645 28.6489 19.8448 28.5091C19.6252 28.3694 19.3457 28.2895 19.0063 28.2895H17.4292V30.1861H19.0063Z" fill="#FF6C4D"/>
<path d="M25.6744 19.7647H34.3988V23.6777H30.0266V24.8556H34.3988V28.6089H30.0266V29.8267H34.4387V33.7398H25.6744V19.7647Z" fill="#FF6C4D"/>
<path d="M4.61232 31.4438C4.61232 31.0645 4.65225 30.7251 4.75207 30.4057C4.85189 30.0863 4.99165 29.8267 5.19129 29.5871C5.37097 29.3675 5.61054 29.1879 5.89004 29.0681C6.16954 28.9483 6.46901 28.8884 6.82837 28.8884C7.16776 28.8884 7.48719 28.9483 7.74673 29.0681C8.02623 29.1879 8.24584 29.3675 8.42552 29.5871C8.6052 29.8067 8.76491 30.0863 8.86473 30.4057C8.96455 30.7251 9.00448 31.0645 9.00448 31.4438V31.8232H10.7414V33.7397H4.61232V31.4438ZM7.34744 31.8232V31.3839C7.34744 31.2242 7.30751 31.0645 7.20769 30.9647C7.10787 30.8449 6.98808 30.785 6.8084 30.785C6.64869 30.785 6.50894 30.8449 6.40911 30.9647C6.30929 31.0845 6.26936 31.2242 6.26936 31.3839V31.8232H7.34744Z" fill="#FF6C4D"/>
<path d="M4.61232 28.6087V26.6722H6.74851V25.1549H4.61232V23.2184H10.7613V25.1549H8.58523V26.6722H10.7613V28.6087H4.61232Z" fill="#FF6C4D"/>
<path d="M7.68667 16.3706C8.12588 16.3706 8.54514 16.4504 8.92446 16.6301C9.30378 16.8098 9.64317 17.0294 9.94264 17.3288C10.2421 17.6283 10.4617 17.9677 10.6214 18.367C10.7811 18.7663 10.881 19.1855 10.881 19.6447C10.881 20.1039 10.8011 20.5231 10.6214 20.9224C10.4617 21.3217 10.2221 21.6611 9.94264 21.9606C9.64317 22.26 9.32374 22.4996 8.92446 22.6593C8.54514 22.839 8.12588 22.9189 7.68667 22.9189C7.24745 22.9189 6.8282 22.839 6.44888 22.6593C6.06955 22.4797 5.73016 22.26 5.4307 21.9606C5.13123 21.6611 4.91162 21.3217 4.75191 20.9224C4.59219 20.5231 4.49237 20.1039 4.49237 19.6447C4.49237 19.1855 4.57223 18.7663 4.75191 18.367C4.91162 17.9677 5.15119 17.6283 5.4307 17.3288C5.73016 17.0294 6.06955 16.7898 6.44888 16.6301C6.8282 16.4704 7.24745 16.3706 7.68667 16.3706ZM7.68667 18.347C7.50699 18.347 7.32731 18.387 7.16759 18.4468C7.00788 18.5067 6.86813 18.6066 6.74834 18.7263C6.62856 18.8461 6.52874 18.9859 6.46884 19.1456C6.38899 19.3053 6.36902 19.485 6.36902 19.6647C6.36902 19.8444 6.40895 20.024 6.46884 20.1837C6.5487 20.3435 6.62856 20.4832 6.74834 20.603C6.86813 20.7228 7.00788 20.8226 7.16759 20.8825C7.32731 20.9424 7.50699 20.9823 7.68667 20.9823C7.86635 20.9823 8.04603 20.9424 8.20574 20.8825C8.36546 20.8226 8.50521 20.7228 8.62499 20.603C8.74478 20.4832 8.8446 20.3435 8.90449 20.1837C8.98435 20.024 9.00432 19.8444 9.00432 19.6647C9.00432 19.485 8.96439 19.3053 8.90449 19.1456C8.82464 18.9859 8.74478 18.8461 8.62499 18.7263C8.50521 18.6066 8.36546 18.5067 8.20574 18.4468C8.04603 18.387 7.86635 18.347 7.68667 18.347Z" fill="#FF6C4D"/>
<path d="M6.40911 13.1165H10.7613V15.0131H6.40911V16.4505H4.61232V11.6591H6.40911V13.1165Z" fill="#FF6C4D"/>
<path d="M7.68667 5.19059C8.12588 5.19059 8.54514 5.27045 8.92446 5.45013C9.30378 5.6298 9.64317 5.84941 9.94264 6.14888C10.2421 6.44834 10.4617 6.78774 10.6214 7.18702C10.7811 7.58631 10.881 8.00556 10.881 8.46474C10.881 8.92392 10.8011 9.34317 10.6214 9.74246C10.4617 10.1417 10.2221 10.4811 9.94264 10.7806C9.64317 11.0801 9.32374 11.3196 8.92446 11.4794C8.54514 11.659 8.12588 11.7389 7.68667 11.7389C7.24745 11.7389 6.8282 11.659 6.44888 11.4794C6.06955 11.2997 5.73016 11.0801 5.4307 10.7806C5.13123 10.4811 4.91162 10.1417 4.75191 9.74246C4.59219 9.34317 4.49237 8.92392 4.49237 8.46474C4.49237 8.00556 4.57223 7.58631 4.75191 7.18702C4.91162 6.78774 5.15119 6.44834 5.4307 6.14888C5.73016 5.84941 6.06955 5.60984 6.44888 5.45013C6.8282 5.27045 7.24745 5.19059 7.68667 5.19059ZM7.68667 7.16706C7.50699 7.16706 7.32731 7.20699 7.16759 7.26688C7.00788 7.32677 6.86813 7.4266 6.74834 7.54638C6.62856 7.66617 6.52874 7.80592 6.46884 7.96563C6.38899 8.12535 6.36902 8.30503 6.36902 8.48471C6.36902 8.66439 6.40895 8.84406 6.46884 9.00378C6.5487 9.16349 6.62856 9.30324 6.74834 9.42303C6.86813 9.54282 7.00788 9.64264 7.16759 9.70253C7.32731 9.76242 7.50699 9.80235 7.68667 9.80235C7.86635 9.80235 8.04603 9.76242 8.20574 9.70253C8.36546 9.64264 8.50521 9.54282 8.62499 9.42303C8.74478 9.30324 8.8446 9.16349 8.90449 9.00378C8.98435 8.84406 9.00432 8.66439 9.00432 8.48471C9.00432 8.30503 8.96439 8.12535 8.90449 7.96563C8.82464 7.80592 8.74478 7.66617 8.62499 7.54638C8.50521 7.4266 8.36546 7.32677 8.20574 7.26688C8.04603 7.18702 7.86635 7.16706 7.68667 7.16706Z" fill="#FF6C4D"/>
</svg>
