<svg width="81" height="81" viewBox="0 0 81 81" fill="none" xmlns="http://www.w3.org/2000/svg">
<circle cx="40.5" cy="40.5" r="40.5" fill="#1A1A1A"/>
<path d="M20.0128 48.2977L17.9608 60.6097C17.7556 61.7383 18.5251 62.7643 19.6537 62.9695C19.7563 63.0208 19.8589 63.0208 19.9615 63.0208C20.0641 63.0208 20.1667 63.0208 20.3206 63.0208L32.6326 60.9688C33.043 60.9175 33.4534 60.7123 33.7612 60.4045L61.0015 33.1129C63.7204 30.394 63.7204 25.9309 61.0015 23.212L57.7696 19.9288C54.9994 17.2612 50.6389 17.2612 47.8687 19.9288L20.5771 47.2204C20.2693 47.5282 20.0641 47.8873 20.0128 48.2977ZM23.6551 51.1705L29.7598 57.2752L22.4752 58.4551L23.6551 51.1705ZM45.6115 27.9829L52.9474 35.3188L33.2995 54.9667L25.9636 47.6308L45.6115 27.9829ZM54.8455 22.8529L58.0774 26.0848C59.206 27.2134 59.206 29.0602 58.0774 30.1888L55.8715 32.3947L48.5356 25.0588L50.7415 22.8529C51.9214 21.7756 53.7169 21.7756 54.8455 22.8529Z" fill="white"/>
</svg>
