<svg width="124" height="168" viewBox="0 0 124 168" fill="none" xmlns="http://www.w3.org/2000/svg">
<path fill-rule="evenodd" clip-rule="evenodd" d="M58.9679 43.5259C60.6684 45.6716 61.6491 48.239 61.7684 51.1902L61.73 51.3335L61.7408 70.5416C63.1803 69.6982 64.6845 69.1794 66.3566 69.1665C69.2377 69.1703 71.6317 70.4263 73.4736 72.6099C74.5169 73.8113 75.2388 75.0802 75.7423 76.5979C77.2202 75.6111 78.9044 74.9869 80.8979 74.9065C83.8559 74.6236 86.2882 75.7363 88.2333 78.1011C89.9337 80.2468 90.876 82.9576 90.957 86.0521C92.2166 85.3141 93.7208 84.7953 95.4697 84.4957L95.6112 84.5337C98.4924 84.5374 100.925 85.6501 102.587 87.9391C104.429 90.1228 105.371 92.8335 105.349 95.7467C106.435 110.941 105.449 124.812 102.635 137.578C102.596 137.722 102.558 137.865 102.558 137.865C102.109 138.974 101.687 140.551 101.111 142.701C100.919 143.418 100.482 143.915 99.942 144.231C99.2607 144.51 98.6177 144.645 98.0516 144.493C97.3439 144.303 96.8546 143.865 96.5453 143.321C96.2359 142.777 96.1449 141.985 96.2985 141.411C96.9131 139.118 97.374 137.398 97.8229 136.289C100.625 124.134 101.457 110.836 100.577 96.0046L100.513 95.68C100.549 93.846 100.045 92.3284 99.0021 91.127C98.2034 90.1448 97.148 89.5547 95.9389 89.538C94.6915 89.6646 93.6118 90.2972 92.5969 91.2544C91.865 92.2874 91.3394 93.683 91.3799 95.2302L91.3197 109.042C91.2692 109.796 91.1155 110.37 90.6788 110.867C90.2421 111.365 89.5608 111.643 88.8147 111.597C88.0686 111.551 87.5025 111.399 87.0516 110.817C86.5623 110.379 86.2914 109.692 86.3035 109.08L86.3007 85.8799C86.337 84.046 85.692 82.4904 84.6871 81.1456C83.8884 80.1634 82.833 79.5733 81.5471 79.8433C80.1965 79.7887 79.1169 80.4213 78.2819 81.273C77.3701 82.4115 76.986 83.845 76.8465 85.4977L76.9036 100.57C76.8531 101.324 76.6995 101.898 76.1212 102.358C75.6845 102.855 75.0032 103.133 74.3986 103.125C73.7941 103.117 73.0865 102.927 72.6356 102.345C72.1463 101.907 71.8753 101.22 71.8874 100.608L71.7594 80.1399C71.6926 78.1247 71.1891 76.607 70.2489 75.5869C69.3471 74.4234 68.1501 73.7954 67.0442 73.96C65.8351 73.9433 64.7555 74.5758 63.7021 75.6764C62.8287 76.6715 62.4446 78.1049 62.4083 79.9389L62.4512 93.9318C62.4007 94.6864 62.2471 95.2598 61.6688 95.7195C61.2321 96.217 60.5508 96.4954 59.9462 96.487C59.3417 96.4787 58.6341 96.2891 58.1832 95.7073C57.6939 95.2689 57.4229 94.5818 57.435 93.9704L57.2506 79.9397L57.289 79.7963L56.6754 51.5156C56.5702 49.6437 55.9252 48.0881 54.9203 46.7433C54.1216 45.7611 53.0662 45.171 51.8571 45.1544C50.6481 45.1377 49.4269 45.7323 48.5535 46.7274C47.6033 48.0092 47.1808 49.5861 47.1828 51.2767L47.8158 116.283C47.83 117.362 47.3165 118.146 46.2753 118.636C45.2724 118.981 44.3848 118.897 43.5094 118.202C32.2938 107.975 25.8682 101.952 24.2972 100.455C22.623 98.7776 20.2312 99.2122 17.0186 101.578C16.1836 102.43 15.7084 103.07 15.5164 103.787C15.2738 105.259 15.842 107.101 17.3241 109.495C20.2499 114.428 23.111 119.035 26.1257 123.07C29.2435 127.285 33.9061 132.529 40.2933 138.696C46.2559 144.749 50.2997 148.906 52.6431 150.916C53.1324 151.355 53.4418 151.899 53.3913 152.653C53.5207 153.303 53.3286 154.019 52.8919 154.517C52.1985 155.407 51.2341 155.609 50.2434 155.344C49.9603 155.268 49.7156 155.049 49.1879 154.754C46.8445 152.743 42.6592 148.549 36.5934 142.314C30 135.784 25.0928 130.321 21.9749 126.106C19.1017 122.109 15.9576 117.426 12.864 111.988C10.5832 108.611 9.79462 105.327 10.5244 102.603C11.0237 100.74 12.0892 99.0279 13.8239 97.649C19.1695 93.5503 23.7996 93.2545 27.5724 96.7237L42.7024 110.457L42.2313 51.64C42.1888 48.4021 43.0601 45.7164 44.6654 43.6883C46.669 41.3059 48.9314 40.2221 51.8509 40.0825C54.732 40.0863 57.1259 41.3423 58.9679 43.5259ZM98.4077 151.656L98.1388 152.659C97.9467 153.376 97.5101 153.874 96.9702 154.19C96.4304 154.506 95.6459 154.603 95.0798 154.452C94.3722 154.262 93.8829 153.824 93.5735 153.28C93.3025 152.593 93.1731 151.943 93.3268 151.37L93.5956 150.367C93.7877 149.65 94.2244 149.152 94.7642 148.836C95.4456 148.558 96.0885 148.423 96.6546 148.574C97.3623 148.764 97.8516 149.202 98.1609 149.746C98.4703 150.29 98.5997 150.939 98.4077 151.656Z" fill="#1A1A1A"/>
<path d="M53.6514 0.839405C53.0219 0.209851 52.3923 0 51.5529 0C50.7135 0 50.084 0.209851 49.4544 0.629554L37.4929 12.5911C36.8633 13.2206 36.6535 13.8502 36.6535 14.6896C36.6535 15.3191 36.8633 15.9487 37.4929 16.5782C38.1225 17.2078 38.752 17.4177 39.3816 17.4177C40.221 17.4177 40.8505 17.2078 41.4801 16.5782L48.615 9.44331V25.1821C46.3066 25.392 43.9983 26.0216 41.8998 27.0708C38.752 28.3299 36.0239 30.2186 33.5057 32.5269C30.358 35.6747 28.0496 39.452 27.0003 43.6491H14.4093L21.7541 36.3043C22.3836 35.6747 22.5935 35.0452 22.3836 34.2057C22.3836 33.3663 22.1738 32.7368 21.7541 32.3171C21.3344 31.8974 20.4949 31.4777 19.6555 31.4777C18.8161 31.4777 18.1866 31.6875 17.557 32.3171L5.59551 44.2786L5.38566 44.4885L4.96595 44.9082C4.7561 45.3279 4.7561 45.7476 4.7561 46.3771C4.7561 47.0067 4.96595 47.4264 5.38566 48.0559V48.2658L17.557 60.4372C18.1866 61.0667 18.8161 61.2766 19.6555 61.0667C20.4949 61.0667 21.1245 60.8569 21.7541 60.4372C22.3836 59.8076 22.5935 59.178 22.3836 58.3386C22.3836 57.4992 22.1738 56.8697 21.7541 56.2401L14.6191 49.1052H26.1609C25.9511 52.4628 26.5806 56.0303 27.8397 59.3879C28.0496 60.0175 28.6791 60.647 29.3087 60.8569C30.1481 61.2766 30.7777 61.2766 31.4072 60.8569C32.0368 60.647 32.6663 60.0175 32.8762 59.3879C33.2959 58.7583 33.2959 57.9189 32.8762 57.2894C31.6171 53.7219 31.1974 49.9446 32.0368 46.1673C32.8762 42.39 34.555 39.0323 37.4929 36.3043C39.3816 34.4156 41.4801 32.9466 43.9983 31.8974C46.3067 31.058 48.8249 30.6383 51.5529 30.6383C54.0711 30.6383 56.5894 31.058 58.8977 32.1072C61.4159 33.1565 63.5144 34.4156 65.4031 36.3043C68.1312 39.0323 69.81 42.39 70.6494 46.1673C71.4888 49.9446 71.2789 53.7219 69.81 57.2894C69.6001 57.9189 69.6001 58.7583 69.81 59.3879C70.2297 60.0175 70.6494 60.4372 71.4888 60.8569C71.9085 61.0667 72.538 61.0667 73.1676 60.8569C73.7972 60.647 74.2169 60.4372 74.4267 60.2273C74.6366 60.0175 74.8464 59.5978 75.0563 59.1781C76.3154 55.8204 76.9449 52.4628 76.7351 49.1052H88.6966L81.5617 56.6598C80.9321 57.2894 80.7222 57.9189 80.5124 58.7583C80.5124 59.5978 80.9321 60.2273 81.5617 60.8569C82.1912 61.4864 82.8208 61.6963 83.4503 61.6963C84.2897 61.6963 84.9193 61.4864 85.5488 60.8569L97.5103 48.8953C98.1399 48.2658 98.3498 47.6362 98.1399 46.7968C98.1399 45.9574 97.93 45.3279 97.5103 44.6983L85.5488 32.7368C84.9193 32.1072 84.2897 31.8974 83.4503 31.8974C82.8208 31.8974 82.1912 32.1072 81.5617 32.7368C80.9321 33.3663 80.7222 33.9959 80.5124 34.6255C80.5124 35.4649 80.9321 36.0944 81.5617 36.724L88.6966 43.8589H75.8957C74.8464 39.6619 72.5381 35.8846 69.6001 32.7368C67.0819 30.2186 64.3539 28.5398 61.2061 27.2807C59.1076 26.4413 56.7992 25.8117 54.4908 25.6019V9.44331L61.6258 16.7881C62.2553 17.4177 62.8849 17.6275 63.5145 17.6275C64.3539 17.6275 64.9834 17.4177 65.613 16.7881C66.2425 16.1585 66.4524 15.529 66.4524 14.6896C66.4524 13.8502 66.2425 13.2206 65.613 12.8009L53.6514 0.839405Z" fill="#1A1A1A"/>
</svg>
