<svg width="54" height="54" viewBox="0 0 54 54" fill="none" xmlns="http://www.w3.org/2000/svg">
<path fill-rule="evenodd" clip-rule="evenodd" d="M27 54C41.9117 54 54 41.9117 54 27C54 12.0883 41.9117 0 27 0C12.0883 0 0 12.0883 0 27C0 41.9117 12.0883 54 27 54ZM24.034 29.9659H18.1021C16.4709 29.9659 15.1362 28.6313 15.1362 27C15.1362 25.3688 16.4709 24.0341 18.1021 24.0341H24.034V18.1023C24.034 16.471 25.3686 15.1364 26.9999 15.1364C28.6311 15.1364 29.9658 16.471 29.9658 18.1023V24.0341H35.8976C37.5288 24.0341 38.8635 25.3688 38.8635 27C38.8635 28.6313 37.5288 29.9659 35.8976 29.9659H29.9658V35.8977C29.9658 37.529 28.6311 38.8636 26.9999 38.8636C25.3686 38.8636 24.034 37.529 24.034 35.8977V29.9659Z" fill="#FF6C4D"/>
</svg>
