<svg width="18" height="18" viewBox="0 0 18 18" fill="none" xmlns="http://www.w3.org/2000/svg">
<path d="M3.84815 18H14.1339C16.2557 18 17.982 16.272 17.964 14.148C17.964 13.662 17.5684 13.266 17.0829 13.266C16.5974 13.266 16.2018 13.662 16.2018 14.148C16.2018 15.282 15.2847 16.2 14.1518 16.2H3.84815C2.71528 16.2 1.7982 15.282 1.7982 14.148V3.834C1.7982 2.7 2.71528 1.782 3.84815 1.764C4.33367 1.764 4.72927 1.368 4.72927 0.882C4.72927 0.396 4.33367 0 3.84815 0C1.72627 0 0 1.728 0 3.852V14.166C0 16.272 1.72627 18 3.84815 18Z" fill="#FF6C4D"/>
<path d="M12.7133 6.156H14.9251L12.0659 9.018C11.7063 9.36 11.7063 9.936 12.0659 10.296C12.2637 10.476 12.4795 10.566 12.7133 10.566C12.9471 10.566 13.1808 10.458 13.3427 10.296L17.6408 5.99357C17.6719 5.97157 17.7018 5.94769 17.7303 5.922C18.0899 5.58 18.0899 5.004 17.7303 4.644L13.3606 0.27C13.019 -0.09 12.4436 -0.09 12.0839 0.27C11.7243 0.612 11.7243 1.188 12.0839 1.548L14.9133 4.392H12.7313C7.3007 4.392 4.04595 7.65 4.04595 13.104C4.04595 13.59 4.44156 13.986 4.92707 13.986C5.41259 13.986 5.80819 13.59 5.82617 13.068C5.82617 8.622 8.27173 6.156 12.7133 6.156Z" fill="#FF6C4D"/>
</svg>
