<svg width="36" height="23" viewBox="0 0 36 23" fill="none" xmlns="http://www.w3.org/2000/svg">
<path fill-rule="evenodd" clip-rule="evenodd" d="M0 5.86735C0 2.6269 2.68629 0 6 0H30C33.3137 0 36 2.6269 36 5.86735V17.1327C36 20.3731 33.3137 23 30 23H6C2.68629 23 0 20.3731 0 17.1327V5.86735ZM6 4.22449C5.07216 4.22449 4.32 4.96002 4.32 5.86735V17.1327C4.32 18.04 5.07216 18.7755 6 18.7755H30C30.9278 18.7755 31.68 18.04 31.68 17.1327V5.86735C31.68 4.96002 30.9278 4.22449 30 4.22449H6Z" fill="#BDBDBD"/>
</svg>
