<svg width="24" height="36" viewBox="0 0 24 36" fill="none" xmlns="http://www.w3.org/2000/svg">
<path fill-rule="evenodd" clip-rule="evenodd" d="M17.8776 -2.67621e-07C21.2589 -1.19818e-07 24 2.68629 24 6L24 30C24 33.3137 21.2589 36 17.8775 36L6.12245 36C2.74111 36 4.5116e-07 33.3137 5.96007e-07 30L1.64508e-06 6C1.78993e-06 2.68629 2.74111 -9.29255e-07 6.12245 -7.81453e-07L17.8776 -2.67621e-07ZM19.5918 6C19.5918 5.07216 18.8243 4.32 17.8776 4.32L6.12245 4.32C5.17568 4.32 4.40816 5.07216 4.40816 6L4.40816 30C4.40816 30.9278 5.17567 31.68 6.12245 31.68L17.8776 31.68C18.8243 31.68 19.5918 30.9278 19.5918 30L19.5918 6Z" fill="#FF6C4D"/>
</svg>
