<svg width="120" height="120" viewBox="0 0 120 120" fill="none" xmlns="http://www.w3.org/2000/svg">
<path d="M28 96H64C66.2 96 68 94.2 68 92C68 89.8 66.2 88 64 88H28C23.6 88 20 84.4 20 80V44C20 39.6 23.6 36 28 36H36C37.5 36 38.9 35.1 39.6 33.8L45.4 22.2C46 20.9 47.4 20 48.9 20H63C64.5 20 65.9 20.9 66.6 22.2L72.4 33.8C73.1 35.2 74.5 36 76 36H84C88.4 36 92 39.6 92 44V64C92 66.2 93.8 68 96 68C98.2 68 100 66.2 100 64V44C100 35.2 92.8 28 84 28H78.5L73.8 18.6C71.8 14.6 67.6 12 63.1 12H48.9C44.4 12 40.2 14.6 38.2 18.6L33.5 28H28C19.2 28 12 35.2 12 44V80C12 88.8 19.2 96 28 96Z" fill="#1A1A1A"/>
<path d="M56 40C45 40 36 49 36 60C36 71 45 80 56 80C67 80 76 71 76 60C76 49 67 40 56 40ZM56 72C49.4 72 44 66.6 44 60C44 53.4 49.4 48 56 48C62.6 48 68 53.4 68 60C68 66.6 62.6 72 56 72Z" fill="#1A1A1A"/>
<path d="M104 88H96V80C96 77.8 94.2 76 92 76C89.8 76 88 77.8 88 80V88H80C77.8 88 76 89.8 76 92C76 94.2 77.8 96 80 96H88V104C88 106.2 89.8 108 92 108C94.2 108 96 106.2 96 104V96H104C106.2 96 108 94.2 108 92C108 89.8 106.2 88 104 88Z" fill="#1A1A1A"/>
</svg>
