<svg width="120" height="120" viewBox="0 0 120 120" fill="none" xmlns="http://www.w3.org/2000/svg">
<path d="M98 94V70C98 63.4 92.6 58 86 58H62C55.4 58 50 63.4 50 70V94C50 100.6 55.4 106 62 106H86C92.6 106 98 100.6 98 94ZM58 94V70C58 67.8 59.8 66 62 66H86C88.2 66 90 67.8 90 70V94C90 96.2 88.2 98 86 98H62C59.8 98 58 96.2 58 94Z" fill="#1A1A1A"/>
<path d="M22 54V78C22 80.2 23.8 82 26 82C28.2 82 30 80.2 30 78V54C30 43 39 34 50 34H68.3L63.1 39.2C61.5 40.8 61.5 43.3 63.1 44.9C64.7 46.5 67.2 46.5 68.8 44.9L80.8 32.9C82.4 31.3 82.4 28.8 80.8 27.2L68.8 15.2C67.2 13.6 64.7 13.6 63.1 15.2C61.5 16.8 61.5 19.3 63.1 20.9L68.3 26.1H50C34.5 26 22 38.5 22 54Z" fill="#1A1A1A"/>
</svg>
