<svg width="120" height="120" viewBox="0 0 120 120" fill="none" xmlns="http://www.w3.org/2000/svg">
<path d="M44 92C46.2 92 48 90.2 48 88V64C48 61.8 46.2 60 44 60C41.8 60 40 61.8 40 64V88C40 90.2 41.8 92 44 92Z" fill="black"/>
<path d="M60 92C62.2 92 64 90.2 64 88V64C64 61.8 62.2 60 60 60C57.8 60 56 61.8 56 64V88C56 90.2 57.8 92 60 92Z" fill="black"/>
<path d="M76 92C78.2 92 80 90.2 80 88V64C80 61.8 78.2 60 76 60C73.8 60 72 61.8 72 64V88C72 90.2 73.8 92 76 92Z" fill="black"/>
<path d="M16 44C16 48.4 19.6 52 24 52V92C24 100.8 31.2 108 40 108H80C88.8 108 96 100.8 96 92V52C100.4 52 104 48.4 104 44V36C104 31.6 100.4 28 96 28H80V20C80 15.6 76.4 12 72 12H48C43.6 12 40 15.6 40 20V28H24C19.6 28 16 31.6 16 36V44ZM88 92C88 96.4 84.4 100 80 100H40C35.6 100 32 96.4 32 92V52H88V92ZM48 20H72V28H48V20ZM24 36H96V44H24V36Z" fill="black"/>
</svg>
