<svg width="25" height="25" viewBox="0 0 25 25" fill="none" xmlns="http://www.w3.org/2000/svg">
<path d="M18.75 18.75C15.2982 22.2018 9.70178 22.2018 6.25 18.75C2.79822 15.2982 2.79822 9.70178 6.25 6.25C9.70178 2.79822 15.2982 2.79822 18.75 6.25C22.2018 9.70178 22.2018 15.2982 18.75 18.75Z" fill="#FF6C4D"/>
<path d="M5.18934 19.8107C9.22691 23.8482 15.7731 23.8482 19.8107 19.8107C23.8482 15.7731 23.8482 9.2269 19.8107 5.18934C15.7731 1.15177 9.22691 1.15177 5.18934 5.18934C1.15178 9.2269 1.15178 15.7731 5.18934 19.8107Z" stroke="#FF6C4D" stroke-width="3"/>
<path fill-rule="evenodd" clip-rule="evenodd" d="M18.5522 8.76607C17.9955 8.20933 17.0929 8.20933 16.5361 8.76607L11.1289 14.1733L8.44337 11.4877C7.88663 10.931 6.98399 10.931 6.42725 11.4877C5.87052 12.0444 5.87052 12.9471 6.42725 13.5038L10.1209 17.1974C10.6776 17.7542 11.5803 17.7542 12.137 17.1974L18.5522 10.7822C19.109 10.2254 19.109 9.3228 18.5522 8.76607Z" fill="white"/>
</svg>
