<svg width="197" height="122" viewBox="0 0 197 122" fill="none" xmlns="http://www.w3.org/2000/svg">
<path d="M181.817 12.0308C181.817 12.0308 181.824 11.9913 181.817 12.0308C181.799 11.9464 181.774 11.9015 181.75 11.8566L181.817 12.0308Z" fill="white"/>
<path d="M183.66 10.9329C183.693 10.9384 183.693 10.9384 183.66 10.9329C183.667 10.8929 183.635 10.8873 183.66 10.9329Z" fill="white"/>
<path d="M178.358 15.9246L178.351 15.9645C178.319 15.959 178.326 15.919 178.358 15.9246Z" fill="white"/>
<path d="M168.686 23.5194L168.661 23.4739L168.686 23.5194Z" fill="white"/>
<path d="M168.681 23.356C168.744 23.3669 168.699 23.4404 168.692 23.4798C168.78 23.5357 168.811 23.5412 168.857 23.4678C168.776 23.3724 168.73 23.4458 168.681 23.356Z" fill="white"/>
<path d="M181.036 20.6404L181.029 20.6803C181.062 20.6859 181.062 20.6859 181.036 20.6404Z" fill="white"/>
<path d="M163.883 26.7362L163.847 26.5674C163.833 26.6463 163.858 26.6912 163.883 26.7362Z" fill="white"/>
<path d="M181.757 11.8181L181.739 11.7323C181.732 11.7724 181.757 11.8181 181.757 11.8181Z" fill="white"/>
<path d="M185.238 9.66687C185.263 9.71179 185.287 9.75671 185.319 9.76219L185.238 9.66687Z" fill="white"/>
<path d="M194.168 4.85904C194.168 4.85904 194.143 4.81409 194.112 4.80859L194.154 4.93794C194.161 4.89849 194.168 4.85904 194.168 4.85904Z" fill="white"/>
<path d="M187.663 8.38745L187.639 8.34269C187.576 8.33178 187.468 8.39405 187.346 8.53492L187.445 8.71395L187.663 8.38745Z" fill="white"/>
<path d="M192.498 10.5623L192.04 10.4019C192.644 9.53489 193.217 9.59372 193.625 8.73327L193.636 8.85663C193.768 8.83914 193.301 7.98871 194.913 8.02546L194.938 8.07022C194.976 8.03636 194.927 7.94685 195.046 8.00796L194.732 7.95344C194.766 7.75691 194.744 7.51016 194.872 7.32998C194.935 7.34088 194.991 7.39109 195.009 7.47515L195.304 7.08094L195.542 7.20317C195.551 6.96187 195.204 6.53723 195.658 6.53494C195.346 6.27844 195.649 6.20958 195.513 6.0644C195.537 6.10916 195.632 6.12551 195.688 6.17572C195.816 5.99554 196.048 5.59042 196.026 5.34367C196.026 5.34367 194.944 5.23693 194.555 5.04813C194.834 4.93452 194.576 4.9302 194.457 4.86909L194.506 4.95861C194.335 5.00996 194.181 4.78071 194.08 4.80366C194.08 4.80366 194.104 4.84843 194.136 4.85388L194.111 4.80912C194.136 4.85388 194.167 4.85932 194.16 4.89863C194.185 4.94339 194.21 4.98815 194.171 5.02201L194.178 4.98271C194.133 5.05587 194.025 5.11813 193.987 5.15198L193.857 4.96749C193.977 5.39328 192.866 5.07909 192.713 5.21451C192.437 5.12613 192.456 5.57487 192.223 5.61532C191.93 5.80755 191.922 5.48219 191.702 5.44402C191.468 5.48448 191.863 5.63396 191.818 5.70712L191.472 5.64715C191.562 5.50083 191.437 5.47902 191.381 5.42881C191.196 5.55878 190.725 5.477 190.877 5.90824C190.542 5.97165 190.443 5.79261 190.328 5.89417C190.384 5.94438 190.517 5.92688 190.535 6.01095C190.353 5.93893 190.521 6.08956 190.584 6.10047C190.53 6.41493 189.443 6.1455 189.658 6.58764L189.608 6.49812C189.743 6.84529 189.991 7.09089 189.982 7.33219L189.832 7.26563L189.822 7.50692C189.696 7.48511 189.685 7.36174 189.661 7.31698C189.575 7.62599 189.247 7.65008 189.024 7.81391L189.728 8.4219C189.445 8.37283 188.911 8.28014 189.052 8.58801L188.789 8.42102C188.143 8.22791 188.676 8.88726 188.456 8.8491L188.092 8.70506L188.252 8.53032C187.994 8.52602 187.868 8.50421 187.623 8.42129C187.655 8.42674 187.655 8.42674 187.648 8.46605L187.641 8.50536C187.708 8.67894 187.674 8.87548 187.559 8.97705C187.375 9.10702 187.383 9.43238 186.912 9.3506L187.039 9.73708L186.718 9.72187L186.563 9.49262C186.754 9.32334 187.088 8.89527 187.331 8.61352L187.257 8.47924C187.104 8.61466 186.993 8.87891 186.886 8.94117C186.823 8.93026 186.522 8.79713 186.531 8.55583L186.571 8.88665C186.098 9.37153 186.092 9.41084 185.408 9.61626L185.52 9.71668C185.462 9.86846 185.396 10.0595 185.266 9.87505C184.929 10.1404 184.518 10.2716 184.122 10.1221L184.257 10.4692C184.187 10.4976 183.826 10.1516 184.041 10.5938L183.961 10.8635C183.854 10.9257 183.914 11.1386 183.701 11.0611L183.669 11.0557C183.669 11.0557 183.669 11.0557 183.694 11.1004C183.422 11.1748 183.841 11.369 183.513 11.3931C183.314 11.237 183.627 11.8582 183.495 11.8757L183.127 11.569C182.781 11.509 182.989 11.9905 182.683 12.2613C182.463 12.2231 182.189 11.9328 182.1 11.5124C182.176 12.0114 182.178 11.8094 182.117 12.1632C182.012 12.0234 181.987 11.9787 181.951 11.8105C181.7 11.7669 181.942 12.0518 181.796 12.148C181.93 12.4951 182.169 12.982 182.124 13.0552L182.212 13.1108C182.164 13.386 182.067 13.5716 181.84 13.5728L181.773 13.3992L181.669 13.6241L181.539 13.4396L181.366 13.693L181.429 13.7039C181.384 13.7771 181.248 13.9965 181.091 13.9693L181.049 13.8405C180.577 13.7587 180.594 14.4094 180.281 14.7196L180.196 14.4619C179.958 14.3397 180.362 14.8145 180.166 14.8211L180.019 14.5526C180.101 15.0122 179.816 14.5985 179.666 14.5319L179.901 14.8561L179.699 14.902C179.465 14.9425 179.345 14.5167 179.278 14.3431L179.311 14.7132L179.138 14.3999C179.259 14.8257 179.037 14.4229 178.983 14.7373C178.902 14.6424 178.922 14.5244 178.828 14.5081L178.813 15.1534L178.836 14.8334L179.076 15.3203C179.12 15.8138 178.86 15.4449 178.819 15.6807L178.822 15.4787C178.711 15.743 178.581 15.5585 178.455 15.5367C178.543 15.5923 178.655 15.6928 178.603 15.8052C178.558 15.8784 178.498 15.6655 178.404 15.6491C178.545 15.957 178.528 16.2376 178.308 16.1994C178.284 16.1547 178.259 16.1099 178.266 16.0706C178.252 16.1492 178.301 16.2387 178.207 16.2224L178.048 15.8305L178.106 16.2453C177.987 16.1842 178.027 16.515 177.904 16.2912L177.917 16.2126L177.378 16.5239L177.23 16.2554C177.382 16.6866 176.895 16.3188 177.134 16.8057C176.91 16.6048 176.857 17.284 176.631 16.7184C176.301 16.9445 176.38 17.6062 175.85 17.6762C175.489 17.3301 175.156 17.7582 174.902 17.9166C174.51 18.4964 174.271 18.9409 173.823 19.4705C173.217 19.0416 173.163 20.2873 172.635 20.1553L172.675 20.4862C172.262 20.2526 172.164 21.0049 171.675 20.8391C171.647 20.9963 171.634 21.0749 171.595 21.1088C171.627 21.1142 171.651 21.159 171.757 21.2987C171.606 21.2321 171.489 21.5357 171.355 21.1885L171.362 21.1492C171.228 20.802 171.175 21.4812 170.919 21.2749L171.123 21.5936L170.92 21.6395L170.941 21.5216C170.552 22.8308 169.732 21.9597 169.332 23.1455C169.249 22.6859 169.277 23.46 169.094 23.0233C168.715 22.5932 168.812 23.3389 168.733 23.6086C168.726 23.6479 168.758 23.6534 168.751 23.6927L168.472 23.8063C168.424 23.1501 168.471 24.3729 168.434 23.8401C167.621 23.8611 166.909 24.7904 166.055 25.0472L166.129 25.1814C165.92 25.2667 165.733 25.5986 165.502 25.4371C165.27 25.2755 165.28 25.9656 165.235 26.0387C165.143 26.387 164.833 25.9285 164.928 25.9449C164.768 26.1196 164.76 26.7256 164.452 26.6318C164.238 26.1896 163.918 27.4704 163.755 26.9158L163.78 26.9606C163.374 26.6877 163.231 27.5132 162.818 27.2796C162.818 27.2796 162.825 27.2403 162.832 27.201C162.716 27.8692 162.593 28.5768 162.477 29.245L163.064 31.0878C163.38 31.507 163.728 31.9317 164.075 32.3563L164.984 31.7851C165.276 31.5929 165.575 31.3613 165.868 31.1691C166.398 31.0991 166.953 31.0739 167.514 31.0093L169.199 29.8843C169.777 29.5392 170.306 29.1045 170.828 28.7092L170.923 28.1589C171.846 28.4403 172.343 27.0689 173.25 27.0643L173.116 26.7171C173.308 26.5479 173.368 26.7607 173.455 26.8164C174.346 26.1611 175.17 25.3322 176.005 24.6267C176.846 23.8819 177.643 23.2102 178.517 22.8355C178.762 22.9185 179.172 22.4227 179.372 22.5788C179.672 21.7806 180.201 21.3459 180.716 20.9898L180.709 21.0291L180.914 20.7813C180.945 20.7867 180.97 20.8315 180.963 20.8708C181.083 20.3652 181.645 20.3007 182 20.1194L181.993 20.1587C183.91 18.6286 185.249 16.5123 187.307 15.2901C188.419 15.0376 188.988 13.4357 190.173 12.9529C190.634 12.9113 192.412 10.8713 192.498 10.5623Z" fill="white"/>
<path d="M195.016 7.43591C195.092 7.57304 195.074 7.48721 195.016 7.43591V7.43591Z" fill="white"/>
<path d="M189.007 7.73018L189.014 7.69073L188.87 7.58447L189.007 7.73018Z" fill="white"/>
<path d="M191.417 5.23178C191.277 5.28879 191.302 5.33372 191.326 5.37864C191.372 5.30521 191.41 5.27123 191.417 5.23178Z" fill="white"/>
<path d="M195.801 6.27664C195.871 6.24812 195.783 6.19222 195.695 6.13632C195.65 6.20979 195.611 6.24378 195.611 6.24378C195.674 6.25474 195.737 6.26569 195.801 6.27664Z" fill="white"/>
<path d="M194.472 4.79073L194.429 4.66138C194.415 4.74028 194.44 4.78523 194.472 4.79073Z" fill="white"/>
<path d="M29.3947 35.544C29.3874 35.5818 29.41 35.5665 29.3947 35.544V35.544Z" fill="white"/>
<path d="M22.6103 26.4561C22.5547 26.4636 22.5133 26.4918 22.4926 26.5059L22.6103 26.4561Z" fill="white"/>
<path d="M25.3868 29.6498C25.4017 29.6716 25.4017 29.6716 25.4235 29.6568C25.4235 29.6568 25.4086 29.635 25.3868 29.6498Z" fill="white"/>
<path d="M31.4168 38.1624C31.4093 38.1068 31.479 38.1201 31.4931 38.1408C31.527 38.0571 31.4988 38.0155 31.464 38.0089C31.4018 38.0512 31.4649 38.0993 31.4168 38.1624Z" fill="white"/>
<path d="M35.1597 42.998L35.123 42.991C35.123 42.991 35.1449 42.9761 35.1597 42.998Z" fill="white"/>
<path d="M28.3993 27.3291C28.3993 27.3291 28.4141 27.3509 28.4359 27.3361L28.3993 27.3291Z" fill="white"/>
<path d="M22.494 26.5056L22.4375 26.5132C22.4519 26.5343 22.4729 26.52 22.494 26.5056Z" fill="white"/>
<path d="M17.6772 15.2931C17.6565 15.3072 17.6565 15.3072 17.6357 15.3213L17.7328 15.2857C17.712 15.2998 17.6979 15.279 17.6772 15.2931Z" fill="white"/>
<path d="M20.0357 21.1603C20.0151 21.1743 20.0151 21.1743 19.9944 21.1883C19.9812 21.2578 20.0375 21.3405 20.1078 21.4439L20.2317 21.3597L20.0357 21.1603Z" fill="white"/>
<path d="M21.472 17.0981L21.3648 17.4735C20.7908 16.8959 20.8417 16.4379 20.2555 16.0199L20.3315 15.9984C20.3372 15.8736 19.7515 16.2114 19.7935 14.852L19.8141 14.838C19.786 14.7966 19.7381 14.8594 19.7645 14.7205L19.7324 14.9843C19.6142 14.9437 19.434 14.9452 19.329 14.8352C19.3356 14.8004 19.3835 14.7376 19.4248 14.7095L19.1519 14.4414L19.2468 14.2257C19.1079 14.1991 18.7849 14.4792 18.802 14.1047C18.6452 14.3625 18.5731 14.0789 18.4773 14.2045C18.4839 14.1698 18.5318 14.107 18.5384 14.0722C18.4193 13.9415 18.1398 13.7081 17.9737 13.7303C17.9737 13.7303 17.8718 14.6465 17.7365 14.9805C17.6578 14.7315 17.6736 14.9325 17.6192 15.03L17.6952 15.0086C17.7176 15.1748 17.5731 15.2731 17.5739 15.3632C17.5946 15.3492 17.5946 15.3492 17.6153 15.3351L17.5946 15.3492C17.6152 15.3351 17.6359 15.3211 17.6565 15.3071C17.6979 15.279 17.7185 15.2649 17.726 15.3203L17.7053 15.3344C17.7682 15.3824 17.8038 15.4791 17.8319 15.5205L17.708 15.6048C18.0121 15.519 17.7788 16.464 17.8426 16.6021C17.7617 16.8386 18.0808 16.8636 18.0966 17.0645C18.2241 17.3408 17.9951 17.315 17.9763 17.5093C18.0062 17.731 18.0927 17.3697 18.1349 17.4317L18.0963 17.7302C18.0053 17.6408 17.9855 17.745 17.9376 17.8078C18.0295 17.9873 17.9711 18.39 18.2611 18.2835C18.2919 18.5953 18.2093 18.6514 18.2449 18.7482C18.2581 18.6788 18.2572 18.5886 18.3191 18.5465C18.2721 18.6994 18.3679 18.5738 18.3605 18.5184C18.5481 18.5723 18.3843 19.5306 18.6875 19.3546L18.6462 19.3827C18.8668 19.263 19.0245 19.0952 19.2047 19.0937L19.1643 19.2119L19.3031 19.2384C19.2834 19.3426 19.2073 19.3641 19.1867 19.3781C19.3884 19.4527 19.4192 19.7644 19.5251 19.9646L19.9421 19.3786C19.9307 19.6283 19.845 20.0798 20.059 19.9947L19.9435 20.2245C19.8034 20.7735 20.2494 20.319 20.2098 20.5273L20.1158 20.8332L20.0033 20.6678C20.0126 20.9035 19.9928 21.0076 19.9533 21.216L19.9599 21.1813L19.9739 21.202C20.0912 21.1524 20.2095 21.193 20.2798 21.2964C20.3716 21.4759 20.5865 21.481 20.5488 21.8696L20.7975 21.7912L20.8002 22.0617L20.6349 22.174C20.5084 21.9879 20.2214 21.6991 20.0526 21.4509L19.97 21.5071C20.0685 21.6519 20.2495 21.7405 20.2992 21.8579C20.286 21.9274 20.2052 22.1638 20.0457 22.1513L20.2671 22.1217C20.5972 22.5626 20.6319 22.5693 20.7695 23.1713L20.824 23.0738C20.9356 23.1491 21.0539 23.1897 20.9374 23.3294C21.1137 23.633 21.2214 24.0134 21.1414 24.34L21.3554 24.255C21.3976 24.317 21.1581 24.6311 21.4613 24.4552L21.6283 24.5231C21.6639 24.6198 21.8301 24.5976 21.7624 24.7646L21.7558 24.7993L21.7765 24.7853C21.8204 25.0276 21.9417 24.6729 21.9791 24.95C21.8767 25.1103 22.2831 24.8642 22.3122 24.9957L22.114 25.2817C22.0754 25.5802 22.3926 25.4249 22.5755 25.6938C22.5706 25.9088 22.3857 26.1253 22.1022 26.197C22.4344 26.1526 22.3097 26.1467 22.532 26.2072C22.4428 26.2981 22.4081 26.2915 22.2908 26.3411C22.2653 26.5701 22.4503 26.3536 22.5 26.471C22.7205 26.3513 23.0585 26.182 23.1072 26.2093L23.1411 26.1258C23.3147 26.159 23.4751 26.2616 23.4562 26.4559L23.3529 26.5261L23.5133 26.6288L23.4035 26.7337L23.5854 26.9125L23.6127 26.8637C23.6614 26.891 23.8153 27.0284 23.8096 27.1532L23.7476 27.1954C23.6892 27.598 24.1396 27.5942 24.3572 27.8697L24.2399 27.9192C24.1656 28.121 24.4811 27.7854 24.4829 27.9657L24.297 28.0921C24.5945 28.041 24.3541 28.265 24.2931 28.3972L24.4921 28.2014L24.5493 28.3742C24.5651 28.5752 24.3305 28.6743 24.1925 28.7378L24.4487 28.7149L24.2562 28.876C24.5462 28.7695 24.2712 28.9868 24.4795 29.0266C24.4109 29.1035 24.3415 29.0902 24.3283 29.1597L24.7581 29.1699L24.5498 29.13L24.8736 28.9401C25.1852 28.9097 24.9796 29.1402 25.1325 29.1875L25.0077 29.1816C25.2028 29.2909 25.0583 29.3892 25.0526 29.5141C25.1004 29.4512 25.1549 29.3537 25.2384 29.3877C25.2872 29.415 25.1492 29.4786 25.1361 29.548C25.3426 29.4076 25.5302 29.4614 25.4973 29.6351C25.4766 29.6491 25.4353 29.6772 25.4147 29.6912C25.47 29.6838 25.5254 29.6764 25.5122 29.7459L25.271 29.8797L25.5338 29.822C25.514 29.9261 25.7355 29.8965 25.5909 29.9948L25.5215 29.9816L25.7896 30.4646L25.6037 30.591C25.8797 30.4639 25.6899 30.8954 25.965 30.6781C25.856 30.8732 26.3139 30.9247 25.9347 31.1221C26.1109 31.4257 26.5539 31.3665 26.6278 31.8304C26.423 32.1511 26.7654 32.4325 26.8788 32.6881C27.3121 33.0588 27.6188 33.2434 28.0109 33.6423C27.7947 34.2127 28.6196 34.2264 28.5893 34.6705L28.8108 34.6409C28.7036 35.0162 29.2103 35.0951 29.1453 35.5325C29.2494 35.5524 29.3189 35.5657 29.3329 35.5864C29.3189 35.5657 29.3461 35.5169 29.4494 35.4467C29.4437 35.5715 29.6247 35.6601 29.4182 35.8006L29.3835 35.7939C29.177 35.9344 29.6555 35.9719 29.5259 36.181L29.7249 35.9852L29.7821 36.158L29.7127 36.1448C30.6443 36.4489 30.1531 37.2366 31.0153 37.5274C30.7112 37.6132 31.2236 37.5672 30.9551 37.7498C30.7372 38.1399 31.2346 37.9831 31.4016 38.0511C31.4223 38.037 31.4223 38.037 31.4429 38.023L31.577 38.2645C31.1622 38.3651 31.958 38.2474 31.6051 38.3059C31.7511 39.0535 32.5259 39.6155 32.8727 40.3475L32.9412 40.2707C33.0331 40.4502 33.277 40.5868 33.2375 40.7951C33.1773 41.0175 33.6475 40.9095 33.6897 40.9715C33.9327 41.018 33.7279 41.3387 33.7064 41.2626C33.8462 41.3793 34.2544 41.3134 34.2711 41.6045C34.0383 41.8839 34.94 41.9663 34.6236 42.2117L34.6443 42.1977C34.5999 42.621 35.1611 42.6023 35.1515 43.0323C35.1515 43.0323 35.1308 43.0464 35.0961 43.0397L36.4605 42.9588L37.3872 42.0564L37.8823 40.9635L36.7476 39.739L36.3326 38.4181L34.4357 35.8063L34.0613 35.7887C34.1087 34.9701 33.163 34.6453 33.0723 33.8903L32.8658 34.0308C32.7327 33.8793 32.8913 33.8017 32.8838 33.7463C31.8233 32.32 30.4934 30.9862 29.8411 29.494C29.9013 29.2716 29.5308 28.9489 29.6051 28.7472C29.0619 28.4814 28.7318 28.0404 28.4571 27.592L28.4918 27.5987L28.3099 27.42C28.3305 27.4059 28.3512 27.3919 28.3718 27.3778C28.0313 27.2767 27.964 26.778 27.8431 26.4671L27.8778 26.4737C26.7874 24.8258 25.3336 23.5762 24.5116 21.7457C24.3217 20.7558 23.256 20.2101 22.9338 19.1589C23.0344 18.8183 21.6737 17.1727 21.472 17.0981Z" fill="white"/>
<path d="M19.5802 19.9566C19.5661 19.9358 19.5661 19.9358 19.5802 19.9566L19.484 20.0827L19.5802 19.9566Z" fill="white"/>
<path d="M17.8874 17.6902C17.9372 17.8081 17.9579 17.794 17.9787 17.7799C17.9712 17.7243 17.9363 17.7176 17.8874 17.6902Z" fill="white"/>
<path d="M18.6622 13.9879C18.6198 13.9255 18.5924 13.9745 18.5585 14.0584C18.6216 14.1066 18.6498 14.1481 18.6498 14.1481C18.6423 14.0925 18.6556 14.0227 18.6622 13.9879Z" fill="white"/>
<path d="M17.6414 15.0155L17.5638 15.0374C17.6136 15.0652 17.6347 15.0509 17.6414 15.0155Z" fill="white"/>
<path d="M186.558 58.5724C186.574 58.5238 186.567 58.4673 186.575 58.443L186.558 58.5724Z" fill="white"/>
<path d="M187.639 58.884C187.639 58.884 187.663 58.8922 187.639 58.884C187.648 58.8594 187.656 58.8348 187.639 58.884Z" fill="white"/>
<path d="M177.74 59.3077C177.749 59.2819 177.749 59.2819 177.724 59.2734L177.74 59.3077Z" fill="white"/>
<path d="M177.741 59.2252C177.756 59.2575 177.74 59.3061 177.716 59.298C177.747 59.3627 177.771 59.3707 177.803 59.3545C177.804 59.2736 177.772 59.2899 177.741 59.2252Z" fill="white"/>
<path d="M184.135 62.9272C184.126 62.9538 184.1 62.9451 184.135 62.9272C184.126 62.9538 184.126 62.9538 184.135 62.9272Z" fill="white"/>
<path d="M174.672 59.6427L174.69 59.5133C174.673 59.5619 174.657 59.6104 174.672 59.6427Z" fill="white"/>
<path d="M188.667 58.962C188.683 58.9949 188.667 59.0443 188.667 59.0443L188.667 58.962Z" fill="white"/>
<path d="M193.767 60.8778C193.775 60.8535 193.775 60.8535 193.759 60.8212L193.727 60.9183C193.75 60.9263 193.758 60.902 193.767 60.8778Z" fill="white"/>
<path d="M190.047 59.4836C190.056 59.4593 190.056 59.4593 190.064 59.435C190.048 59.4027 189.977 59.3785 189.898 59.3787L189.896 59.5405L190.047 59.4836Z" fill="white"/>
<path d="M191.557 63.0409L191.403 62.7189C191.871 62.581 192.09 62.8706 192.512 62.6362L192.487 62.7087C192.542 62.7811 192.589 62.0962 193.229 62.9328L193.22 62.957C193.244 62.965 193.245 62.8845 193.291 62.9811L193.175 62.7799C193.255 62.6991 193.304 62.554 193.392 62.5297C193.407 62.5619 193.414 62.6183 193.422 62.6746L193.652 62.6178L193.713 62.8271C193.777 62.7142 193.758 62.3034 193.922 62.5206C193.862 62.2307 194.011 62.3351 193.981 62.1901C193.997 62.2223 194.004 62.2787 194.035 62.3431C194.154 62.3026 194.337 62.2297 194.394 62.0604C194.394 62.0604 193.966 61.457 193.858 61.1511C194.016 61.2313 193.898 61.1107 193.876 61.0221L193.875 61.1027C193.788 61.0465 193.775 60.8531 193.744 60.7887C193.736 60.8129 193.735 60.8129 193.751 60.8451L193.759 60.8209C193.775 60.8531 193.766 60.8773 193.758 60.9015C193.774 60.9337 193.757 60.9821 193.734 60.9741L193.742 60.9499C193.71 60.9661 193.639 60.942 193.615 60.934L193.617 60.7729C193.543 61.0711 193.163 60.3226 193.084 60.3228C192.991 60.1296 192.886 60.3634 192.76 60.267C192.586 60.2351 192.676 60.0496 192.59 59.9129C192.464 59.8164 192.612 60.082 192.58 60.0982L192.44 59.889C192.527 59.8646 192.481 59.7681 192.474 59.7117C192.347 59.6958 192.184 59.398 192.133 59.7043C191.969 59.5676 191.986 59.4387 191.915 59.4147C191.946 59.4791 191.985 59.5193 191.992 59.5757C191.93 59.4469 191.952 59.616 192 59.632C191.903 59.7611 191.499 59.0852 191.464 59.4236L191.456 59.3672C191.422 59.6251 191.475 59.8587 191.402 59.9958L191.364 59.875L191.299 59.9879C191.244 59.9155 191.269 59.843 191.277 59.8188C191.157 59.9399 191.016 59.8112 190.874 59.7632L191.009 60.4558C190.9 60.311 190.698 59.973 190.671 60.2067L190.618 59.9731C190.394 59.5466 190.45 60.1588 190.365 60.022L190.265 59.7724L190.367 59.7803C190.25 59.6597 190.204 59.5631 190.126 59.4021L190.142 59.4343L190.118 59.4263C190.101 59.5552 190.044 59.644 189.973 59.6199C189.855 59.5799 189.766 59.7654 189.587 59.516L189.552 59.7738L189.419 59.621L189.414 59.4035C189.54 59.4194 189.802 59.3463 189.969 59.3218L189.97 59.2413C189.867 59.2334 189.755 59.3303 189.684 59.3063C189.645 59.2661 189.56 59.0487 189.633 58.9116L189.568 59.1051C189.243 59.1299 189.235 59.1541 188.865 58.9212L188.888 59.0098C188.816 59.0663 188.744 59.1228 188.722 58.9537C188.525 58.9138 188.297 58.8095 188.149 58.5439L188.123 58.7776C188.075 58.7616 188.016 58.3911 187.981 58.7296L187.893 58.8345C187.822 58.8105 187.796 58.9636 187.719 58.8026L187.703 58.7704L187.695 58.7946C187.546 58.6902 187.701 59.0121 187.536 58.8755C187.49 58.6983 187.485 59.1817 187.399 59.1255L187.331 58.7792C187.191 58.57 187.171 58.9407 186.965 58.925C186.872 58.8123 186.82 58.4982 186.878 58.2484C186.795 58.5708 186.836 58.4499 186.732 58.6031C186.725 58.4662 186.733 58.442 186.743 58.3373C186.633 58.1925 186.678 58.4502 186.599 58.4503C186.572 58.684 186.544 59.0789 186.512 59.095L186.543 59.1594C186.47 59.2965 186.375 59.3451 186.281 59.2325L186.299 59.1035L186.195 59.1762L186.197 59.0151L186.046 59.0718L186.061 59.104C186.029 59.1202 185.902 59.1849 185.855 59.0883L185.856 59.0077C185.685 58.7341 185.515 59.0809 185.317 59.1216L185.35 58.9443C185.281 58.7591 185.34 59.2101 185.238 59.1217L185.232 58.9042C185.158 59.2025 185.122 58.84 185.076 58.7434L185.112 59.0253L185.002 58.9611C184.9 58.8726 184.943 58.5906 184.96 58.4616L184.886 58.6793L184.866 58.4296C184.815 58.7358 184.803 58.3814 184.722 58.5427C184.699 58.4541 184.747 58.3895 184.708 58.3493L184.562 58.7041L184.666 58.5508L184.646 58.9215C184.548 59.2117 184.504 58.8734 184.44 58.9863L184.481 58.8654C184.369 58.9623 184.371 58.8012 184.292 58.7208C184.323 58.7852 184.338 58.8979 184.298 58.9383C184.266 58.9545 184.291 58.8013 184.252 58.7611C184.25 59.0028 184.153 59.1319 184.083 59.0273C184.091 59.0031 184.084 58.9468 184.084 58.9468C184.068 58.9951 184.051 59.0435 184.02 58.9791L184.031 58.7132L183.965 58.9873C183.91 58.9149 183.868 59.1164 183.855 58.923L183.871 58.8747L183.547 58.8189L183.542 58.6014C183.514 58.9157 183.369 58.4889 183.373 58.8676C183.312 58.6583 183.133 59.0292 183.178 58.586C182.972 58.5703 182.841 58.9573 182.59 58.7644C182.499 58.4101 182.252 58.5153 182.079 58.4834C181.76 58.6452 181.529 58.7826 181.203 58.888C181.003 58.3889 180.695 59.0663 180.5 58.7847L180.435 58.9782C180.304 58.6642 180.07 59.0433 179.883 58.7375C179.827 58.8263 179.819 58.8505 179.787 58.8666C179.787 58.8666 179.802 58.8988 179.809 59.0358C179.762 58.9392 179.642 59.0603 179.645 58.8186L179.653 58.7944C179.664 58.5285 179.477 58.9236 179.425 58.6901L179.461 58.972L179.343 58.932L179.359 58.8836C178.893 59.4807 178.681 58.6271 178.232 59.1759C178.283 58.8696 178.151 59.3372 178.131 59.0069C178.033 58.5962 177.916 59.0959 177.828 59.2008C177.82 59.225 177.82 59.225 177.835 59.2572L177.661 59.2253C177.745 58.8223 177.547 59.5639 177.638 59.2173C177.214 58.912 176.68 59.2434 176.198 59.1074L176.213 59.2201C176.086 59.2043 175.935 59.3415 175.834 59.1726C175.733 59.0036 175.632 59.4549 175.601 59.4711C175.488 59.6486 175.397 59.2943 175.444 59.3103C175.349 59.3588 175.226 59.7216 175.093 59.5688C175.049 59.2305 174.685 59.916 174.682 59.5374L174.673 59.5616C174.479 59.28 174.291 59.7557 174.088 59.4983C174.088 59.4983 174.097 59.4741 174.105 59.4499L173.672 60.6512L173.784 61.9562L174.136 63.0189L175.136 62.7914L175.923 63.1927L177.848 63.0358L177.978 62.7294C178.36 63.2362 178.85 62.6471 179.257 63.0008L179.268 62.7349C179.379 62.7185 179.377 62.8797 179.416 62.9199C180.494 62.8533 181.59 62.4966 182.568 62.8009C182.669 62.9698 182.939 62.8726 183.017 63.0336C183.337 62.7107 183.677 62.7181 183.986 62.7416L183.977 62.7658L184.128 62.7091C184.144 62.7413 184.136 62.7655 184.127 62.7897C184.289 62.5477 184.555 62.7727 184.76 62.869L184.752 62.8932C185.954 62.9231 187.044 62.4294 188.244 62.7816C188.793 63.1833 189.433 62.6181 190.062 62.9391C190.161 63.3498 191.437 63.162 191.557 63.0409Z" fill="white"/>
<path d="M193.446 62.6831C193.437 62.79 193.429 62.7325 193.446 62.6831V62.6831Z" fill="white"/>
<path d="M190.819 59.7724L190.789 59.627L190.819 59.7724Z" fill="white"/>
<path d="M192.491 59.6639C192.419 59.6394 192.411 59.6641 192.426 59.697C192.451 59.7051 192.475 59.7133 192.491 59.6639Z" fill="white"/>
<path d="M194.051 62.4566C194.098 62.4727 194.067 62.4081 194.044 62.3192C194.012 62.3354 193.98 62.3517 193.98 62.3517C194.02 62.392 194.035 62.4243 194.051 62.4566Z" fill="white"/>
<path d="M193.907 61.008L193.908 60.9258C193.9 60.9505 193.891 60.9751 193.907 61.008Z" fill="white"/>
<path d="M9.86341 69.4883C9.85382 69.5436 9.83702 69.5748 9.82022 69.6061L9.86341 69.4883Z" fill="white"/>
<path d="M8.49317 69.09C8.50085 69.1156 8.48297 69.1488 8.49317 69.09V69.09Z" fill="white"/>
<path d="M13.0647 69.2089C13.0647 69.2089 13.09 69.2013 13.0824 69.176C13.0824 69.176 13.09 69.2013 13.0647 69.2089Z" fill="white"/>
<path d="M21.0227 69.4842C21.0227 69.4842 20.9974 69.4918 21.0227 69.4842C21.0303 69.5095 21.0303 69.5095 21.0303 69.5095L21.0227 69.4842Z" fill="white"/>
<path d="M20.9718 69.5782C20.9334 69.5372 20.9742 69.4988 20.9982 69.4916C20.9766 69.4194 20.9213 69.4097 20.9045 69.441C20.9022 69.5204 20.9814 69.5228 20.9718 69.5782Z" fill="white"/>
<path d="M24.889 69.4215L24.8698 69.5321C24.8866 69.5008 24.9034 69.4696 24.889 69.4215Z" fill="white"/>
<path d="M9.82092 69.6051L9.81117 69.6613C9.80384 69.6369 9.82825 69.6296 9.82092 69.6051Z" fill="white"/>
<path d="M7.22428 68.9484C7.21707 68.9243 7.22665 68.869 7.21944 68.845L7.22428 68.9484Z" fill="white"/>
<path d="M0.893804 66.6171C0.901136 66.6416 0.901137 66.6416 0.884057 66.6733L0.910883 66.5853C0.910883 66.5853 0.918216 66.6098 0.893804 66.6171Z" fill="white"/>
<path d="M5.49609 68.317C5.50327 68.341 5.47935 68.3482 5.48654 68.3721C5.52483 68.4129 5.57986 68.4225 5.68991 68.4417L5.69465 68.2836L5.49609 68.317Z" fill="white"/>
<path d="M3.78714 64.7041L3.95948 65.018C3.3638 65.1183 3.08858 64.8092 2.55273 65.0221L2.58621 64.9598C2.50963 64.8784 2.42609 65.5562 1.66982 64.6863L1.66264 64.6624C1.63872 64.6695 1.62916 64.7246 1.5765 64.636L1.71293 64.8301C1.63161 64.9067 1.54073 65.0384 1.41394 65.0503C1.39957 65.0024 1.3852 64.9544 1.39475 64.8994L1.11724 64.9304L1.02866 64.7219C0.9306 64.8297 0.949861 65.2417 0.744038 64.9901C0.806327 65.2847 0.612503 65.1601 0.631687 65.311C0.624503 65.287 0.602949 65.2151 0.588581 65.1672C0.437863 65.1863 0.198639 65.2581 0.114949 65.4137C0.114949 65.4137 0.617546 66.0463 0.734864 66.3506C0.548225 66.2499 0.694204 66.3889 0.722941 66.4847L0.725309 66.4057C0.825813 66.48 0.828258 66.662 0.873734 66.7267C0.866549 66.7028 0.866551 66.7028 0.883289 66.6716L0.866551 66.7028C0.859367 66.6788 0.876103 66.6477 0.868919 66.6237C0.861735 66.5998 0.87129 66.5447 0.902396 66.5615L0.909579 66.5854C0.957424 66.5711 1.04356 66.5975 1.07467 66.6143L1.06993 66.7723C1.16554 66.4826 1.62511 67.2325 1.73516 67.2517C1.84767 67.453 1.98876 67.2279 2.12037 67.319C2.34767 67.3814 2.21613 67.5514 2.33101 67.6736C2.4698 67.7887 2.30464 67.4987 2.3764 67.4772L2.54394 67.6881C2.44106 67.6928 2.49372 67.7815 2.51528 67.8534C2.65644 67.8894 2.87663 68.1889 2.94114 67.8823C3.14215 68.0309 3.13022 68.1651 3.20917 68.1675C3.19481 68.1196 3.12541 68.0621 3.13496 68.007C3.20199 68.1435 3.17562 67.9687 3.14452 67.9519C3.2665 67.837 3.73562 68.5319 3.79294 68.2013L3.78339 68.2564C3.81442 68.0121 3.7976 67.7821 3.88848 67.6504L3.94832 67.7631L4.04638 67.6553C4.09904 67.744 4.06556 67.8062 4.07275 67.8302C4.22583 67.7321 4.39574 67.8639 4.56801 67.9167L4.41469 67.2315C4.54393 67.4017 4.79523 67.718 4.83344 67.4976L4.90529 67.7372C5.16858 68.1805 5.11577 67.5696 5.23065 67.6918L5.35752 67.941L5.22354 67.929C5.36952 68.068 5.41499 68.1327 5.52031 68.31C5.52031 68.31 5.51313 68.286 5.50594 68.2621L5.52987 68.2549C5.54897 68.1447 5.62311 68.0442 5.73317 68.0634C5.87433 68.0994 6.00587 67.9294 6.21887 68.2049L6.29775 67.9463L6.45091 68.1092L6.43662 68.3224C6.27153 68.2936 5.95336 68.3629 5.74043 68.3484L5.73806 68.4275C5.87204 68.4395 6.02513 68.3414 6.08734 68.3749C6.12563 68.4157 6.21421 68.6241 6.12334 68.7558L6.22376 68.569C6.64244 68.574 6.66636 68.5669 7.07793 68.809L7.0492 68.7132C7.1377 68.6605 7.22621 68.6079 7.24539 68.7588C7.52053 68.8068 7.76939 68.9411 7.92737 69.2071L7.9895 68.9795C8.04453 68.9891 8.10445 69.3628 8.16177 69.0323L8.29094 68.9414C8.37707 68.9677 8.41292 68.8264 8.51106 68.9798L8.51824 69.0037L8.51106 68.9798C8.67377 69.0877 8.52535 68.7666 8.72636 68.9152C8.77665 69.0829 8.82197 68.6254 8.91529 68.6758L8.99195 69.0184C9.15948 69.2292 9.20962 68.8747 9.45365 68.906C9.56853 69.0282 9.60689 69.3301 9.52084 69.5648C9.64037 69.2678 9.59016 69.3612 9.73606 69.2391C9.74806 69.3661 9.73132 69.3972 9.68829 69.5145C9.81035 69.6607 9.78635 69.4068 9.8653 69.4092C9.89633 69.1649 9.96321 68.7793 9.98713 68.7721L9.96558 68.7003C10.0876 68.5854 10.2 68.5255 10.3149 68.6478L10.2957 68.7579L10.4321 68.6909L10.4274 68.849L10.6259 68.8156L10.6116 68.7677C10.6594 68.7533 10.8029 68.7103 10.8795 68.7918L10.8771 68.8708C11.0902 69.1464 11.3054 68.8207 11.5829 68.7897L11.5303 68.9622C11.6117 69.1466 11.5781 68.6867 11.6858 68.785L11.6715 68.9982C11.7982 68.7251 11.7959 69.0653 11.8557 69.1779L11.8485 68.8929L11.9299 69.0773C12.0615 69.1684 11.9898 69.451 11.9779 69.5852L12.095 69.3672L12.0951 69.6283C12.1907 69.3385 12.1645 69.6859 12.3032 69.5398C12.308 69.6428 12.2674 69.6811 12.3057 69.7219L12.5209 69.3962L12.3822 69.5422L12.4323 69.1878C12.559 68.9148 12.6046 69.2406 12.7027 69.1328L12.6285 69.2334C12.7888 69.1592 12.784 69.3173 12.8606 69.3988C12.8391 69.3269 12.8103 69.2311 12.8749 69.1856C12.9228 69.1712 12.8869 69.3126 12.9252 69.3533C12.9562 69.109 13.0543 69.0012 13.1381 69.1067C13.1213 69.1378 13.1357 69.1857 13.1118 69.1929C13.1285 69.1618 13.162 69.0995 13.2003 69.1403L13.1525 69.4157L13.2553 69.1499C13.308 69.2385 13.4012 69.0278 13.3797 69.217L13.3463 69.2792L13.7626 69.3633L13.7483 69.5765C13.8128 69.2699 13.966 69.694 13.9611 69.3299C14.0258 69.5455 14.2649 69.2126 14.2052 69.6222C14.4804 69.6703 14.6501 69.2799 14.9517 69.5028C15.0594 69.8622 15.3704 69.7689 15.5905 69.8074C15.9972 69.6854 16.2771 69.5754 16.7149 69.4702C16.9447 69.9757 17.3512 69.3316 17.5953 69.6239L17.6718 69.4443C17.8442 69.7582 18.1312 69.411 18.3586 69.7345C18.4399 69.6579 18.4566 69.6268 18.4805 69.6196C18.4734 69.5956 18.4662 69.5717 18.4542 69.4447C18.5307 69.5262 18.6838 69.4281 18.6528 69.6724L18.6361 69.7035C18.605 69.9478 18.8681 69.6078 18.9328 69.8234L18.9016 69.5455L19.0499 69.6055L19.0093 69.6438C19.6264 69.0932 19.8539 69.9389 20.4375 69.4505C20.3419 69.7403 20.5523 69.3116 20.5428 69.6278C20.665 70.0351 20.806 69.5489 20.9351 69.4579C20.9279 69.434 20.9519 69.4268 20.9447 69.4029L21.1409 69.4485C20.9951 69.8316 21.3011 69.1132 21.172 69.4652C21.6912 69.8056 22.3874 69.5186 22.9903 69.7033L22.9616 69.6075C23.1267 69.6363 23.3037 69.531 23.4329 69.7011C23.5382 69.8784 23.7008 69.4641 23.7486 69.4498C23.8802 69.2798 23.9879 69.6391 23.9329 69.6295C24.0764 69.5865 24.2295 69.2273 24.4137 69.407C24.4665 69.7567 24.9519 69.115 24.9329 69.4863L24.9496 69.4552C25.1698 69.7547 25.4209 69.2877 25.6818 69.549C25.6818 69.549 25.665 69.5801 25.6722 69.604L26.2748 68.4833L26.2026 67.1994L25.8076 66.1429L24.5468 66.2859L23.5729 65.8208L21.1231 65.8243L20.9174 66.0949C20.4675 65.5509 19.8265 66.1087 19.3168 65.7132L19.2857 65.9575C19.135 65.9766 19.1637 65.8114 19.1254 65.7706C17.7665 65.7604 16.3526 66.0016 15.1634 65.6009C15.0581 65.4236 14.6921 65.5073 14.6107 65.3228C14.1993 65.6029 13.7734 65.5739 13.3954 65.5306L13.4122 65.4995L13.2136 65.5329C13.2064 65.5089 13.1992 65.485 13.216 65.4539C12.9887 65.6525 12.6872 65.4296 12.4216 65.3265L12.4384 65.2954C10.9407 65.1701 9.51488 65.5454 8.05776 65.1207C7.37579 64.6724 6.53858 65.1846 5.77529 64.8129C5.54791 64.4895 3.93304 64.5821 3.78714 64.7041Z" fill="white"/>
<path d="M1.39508 64.901C1.41457 64.7886 1.39749 64.8204 1.39508 64.901V64.901Z" fill="white"/>
<path d="M4.55222 67.9478L4.57148 68.0993L4.55222 67.9478Z" fill="white"/>
<path d="M2.42741 67.9062C2.52107 67.9568 2.53787 67.9255 2.52344 67.8774C2.46821 67.8678 2.4442 67.875 2.42741 67.9062Z" fill="white"/>
<path d="M0.600946 65.0329C0.545718 65.0233 0.567349 65.0954 0.58898 65.1675C0.636998 65.1531 0.685016 65.1387 0.685016 65.1387C0.653797 65.1219 0.639376 65.0738 0.600946 65.0329Z" fill="white"/>
<path d="M0.72436 66.4841L0.697529 66.5721C0.739021 66.533 0.731691 66.5086 0.72436 66.4841Z" fill="white"/>
<path d="M176.865 106.547C176.839 106.604 176.773 106.644 176.76 106.672L176.865 106.547Z" fill="white"/>
<path d="M178.631 107.416C178.631 107.416 178.672 107.435 178.631 107.416C178.617 107.446 178.604 107.475 178.631 107.416Z" fill="white"/>
<path d="M165.719 96.7217C165.706 96.7513 165.706 96.7513 165.665 96.7327L165.719 96.7217Z" fill="white"/>
<path d="M165.639 96.7899C165.692 96.7793 165.719 96.7217 165.679 96.7036C165.785 96.6822 165.825 96.7003 165.852 96.7473C165.772 96.8155 165.745 96.7686 165.639 96.7899Z" fill="white"/>
<path d="M177.93 100.392C177.945 100.36 177.901 100.34 177.93 100.392C177.945 100.36 177.945 100.36 177.93 100.392Z" fill="white"/>
<path d="M161.923 93.2371L161.818 93.3629C161.844 93.3053 161.87 93.2477 161.923 93.2371Z" fill="white"/>
<path d="M180.091 108.426C180.144 108.415 180.17 108.358 180.17 108.358L180.091 108.426Z" fill="white"/>
<path d="M188.865 112.16C188.852 112.189 188.852 112.189 188.799 112.2L188.851 112.085C188.891 112.103 188.878 112.132 188.865 112.16Z" fill="white"/>
<path d="M182.47 109.434C182.457 109.463 182.457 109.463 182.444 109.492C182.39 109.502 182.27 109.448 182.164 109.365L182.322 109.228L182.47 109.434Z" fill="white"/>
<path d="M188.038 108.052L187.51 108.158C188.004 108.763 188.586 108.75 188.921 109.386L188.96 109.3C189.106 109.297 188.489 109.916 190.182 109.888L190.195 109.86C190.235 109.878 190.156 109.946 190.314 109.914L189.957 109.96C189.985 110.11 189.907 110.283 190 110.394C190.053 110.383 190.119 110.344 190.185 110.305L190.438 110.593L190.729 110.482C190.703 110.644 190.269 110.966 190.706 110.956C190.337 111.134 190.642 111.203 190.457 111.293C190.51 111.282 190.576 111.243 190.681 111.221C190.802 111.38 190.976 111.631 190.884 111.832C190.884 111.832 189.708 111.887 189.259 112.029C189.551 112.127 189.273 112.104 189.154 112.154L189.233 112.086C189.061 112.043 188.85 112.189 188.745 112.211C188.758 112.182 188.758 112.182 188.811 112.171L188.798 112.2C188.85 112.189 188.864 112.161 188.877 112.132C188.929 112.121 188.955 112.064 188.916 112.046L188.903 112.075C188.876 112.028 188.756 111.974 188.716 111.956L188.559 112.092C188.755 111.766 187.5 111.992 187.393 111.909C187.077 111.973 187.167 111.668 186.902 111.617C186.636 111.462 186.572 111.71 186.321 111.734C186.056 111.683 186.518 111.616 186.491 111.569L186.095 111.597C186.188 111.709 186.03 111.74 185.964 111.78C185.778 111.661 185.263 111.738 185.498 111.43C185.141 111.372 185.036 111.497 184.917 111.443C185.022 111.422 185.115 111.429 185.181 111.39C184.969 111.432 185.167 111.315 185.247 111.351C185.245 111.142 184.029 111.283 184.318 110.964L184.252 111.003C184.462 110.753 184.765 110.614 184.803 110.423L184.631 110.484L184.657 110.323C184.511 110.326 184.472 110.412 184.459 110.44C184.418 110.214 184.1 110.174 183.861 110.066L184.731 109.63C184.44 109.636 183.832 109.707 184.029 109.484L183.725 109.624C182.999 109.744 183.683 109.293 183.432 109.318L183.049 109.421L183.196 109.522C182.918 109.5 182.759 109.531 182.495 109.585L182.548 109.574L182.508 109.556C182.613 109.43 182.625 109.298 182.506 109.244C182.307 109.153 182.371 108.906 181.882 108.926L182.091 108.675L181.761 108.664L181.537 108.839C181.723 108.958 182.003 109.292 182.203 109.487L182.125 109.555C181.978 109.454 181.924 109.256 181.804 109.202C181.712 109.195 181.382 109.287 181.344 109.477L181.448 109.248C181.035 108.888 181.048 108.859 180.319 108.667L180.438 108.617C180.397 108.495 180.356 108.373 180.159 108.491C179.853 108.318 179.442 108.166 178.98 108.233L179.176 108.011C179.097 107.975 178.649 108.221 178.938 107.902L178.923 107.723C178.803 107.669 178.921 107.515 178.657 107.568L178.604 107.578L178.617 107.55C178.313 107.481 178.841 107.374 178.483 107.316C178.246 107.416 178.719 107.008 178.547 106.965L178.112 107.182C177.715 107.21 178.057 106.881 177.764 106.679C177.526 106.675 177.144 106.882 176.974 107.151C177.183 106.796 177.118 106.939 177.13 106.702C176.985 106.81 176.972 106.838 176.88 106.935C176.589 106.941 176.905 106.774 176.799 106.691C176.995 106.469 177.35 106.111 177.323 106.064L177.429 106.043C177.467 105.852 177.386 105.712 177.148 105.708L177.043 105.833L176.976 105.665L176.818 105.801L176.671 105.596L176.724 105.585C176.697 105.538 176.59 105.351 176.432 105.383L176.353 105.451C175.851 105.5 175.966 105.034 175.739 104.793L175.608 104.975C175.331 105.057 175.858 104.743 175.633 104.71L175.409 104.885C175.605 104.559 175.197 104.823 175.039 104.855L175.368 104.659L175.156 104.597C174.931 104.564 174.708 104.844 174.603 104.969L174.72 104.711L174.444 104.897C174.68 104.589 174.311 104.871 174.363 104.653C174.244 104.703 174.245 104.807 174.152 104.799L174.307 104.351L174.296 104.588L174.637 104.258C174.793 103.914 174.398 104.15 174.424 103.989L174.359 104.132C174.304 103.935 174.147 104.07 173.961 104.056C174.067 104.034 174.199 103.956 174.185 103.88C174.158 103.834 174.04 103.988 173.947 103.98C174.184 103.776 174.182 103.568 173.984 103.582C173.971 103.611 173.905 103.65 173.905 103.65C173.931 103.593 173.957 103.535 173.852 103.556L173.602 103.789L173.785 103.492C173.639 103.495 173.783 103.283 173.573 103.43L173.547 103.487L173.055 103.195L172.832 103.371C173.107 103.081 172.487 103.284 172.868 102.972C172.578 103.083 172.707 102.588 172.326 103.003C172.034 102.801 172.242 102.342 171.712 102.241C171.237 102.44 171.01 102.095 170.744 101.94C170.476 101.473 170.301 101.117 169.967 100.689C169.202 100.895 169.46 100.009 168.918 100.04L169.022 99.8106C168.533 99.9349 168.595 99.3751 168.04 99.4346C168.052 99.3019 168.065 99.2732 168.038 99.2264C168.038 99.2264 168.091 99.2158 168.236 99.1085C168.077 99.1404 168.036 98.9141 167.799 99.1181L167.786 99.1468C167.537 99.3795 167.678 98.8558 167.375 98.995L167.704 98.7984L167.505 98.7081L167.479 98.7655C167.445 97.7819 166.312 98.2706 166.252 97.3444C166.016 97.6525 166.303 97.1256 165.948 97.3795C165.407 97.6186 165.747 97.081 165.732 96.9015C165.745 96.8728 165.745 96.8728 165.798 96.8622L165.532 96.7072C165.245 97.13 165.714 96.3056 165.493 96.6891C164.618 96.5001 164.228 95.6663 163.445 95.2766L163.577 95.198C163.39 95.079 163.322 94.806 163.018 94.8411C162.714 94.8762 163.028 94.3961 163.001 94.3493C163.026 94.0838 162.551 94.2835 162.631 94.3196C162.55 94.1794 162.745 93.7492 162.415 93.7376C162.02 93.9734 162.211 93.0227 161.829 93.334L161.842 93.3053C161.3 93.3362 161.521 92.7445 160.992 92.7467C160.992 92.7467 160.979 92.7754 160.966 92.804L161.576 91.3519L163.023 90.383L164.554 89.8665L165.674 91.1007L167.133 91.5892L169.57 93.7314L169.441 94.1223C170.459 94.0998 170.533 95.1015 171.433 95.2331L171.183 95.4658C171.317 95.5953 171.474 95.4594 171.567 95.4668C172.952 96.6478 174.074 98.0902 175.693 98.859C175.997 98.8239 176.265 99.1872 176.529 99.134C176.639 99.7374 177.105 100.087 177.544 100.389L177.557 100.361L177.704 100.566C177.756 100.555 177.769 100.526 177.782 100.498C177.759 100.867 178.342 100.959 178.713 101.092L178.726 101.064C180.375 102.296 181.353 103.845 183.318 104.805C184.457 105.045 184.757 106.184 185.924 106.575C186.464 106.336 187.997 107.826 188.038 108.052Z" fill="white"/>
<path d="M190.225 110.323C190.318 110.224 190.251 110.264 190.225 110.323V110.323Z" fill="white"/>
<path d="M183.796 110L183.611 110.09L183.796 110Z" fill="white"/>
<path d="M185.938 111.837C185.818 111.783 185.831 111.754 185.884 111.743C185.924 111.761 185.964 111.779 185.938 111.837Z" fill="white"/>
<path d="M190.814 111.142C190.894 111.179 190.788 111.2 190.669 111.25C190.642 111.203 190.615 111.156 190.615 111.156C190.708 111.164 190.761 111.153 190.814 111.142Z" fill="white"/>
<path d="M189.182 112.2L189.103 112.269C189.116 112.24 189.129 112.211 189.182 112.2Z" fill="white"/>
<path d="M24.7001 113.158C24.7159 113.241 24.7346 113.283 24.7288 113.364L24.7001 113.158Z" fill="white"/>
<path d="M23.4502 114.288C23.4282 114.287 23.4282 114.287 23.4502 114.288C23.4472 114.329 23.4443 114.371 23.4502 114.288Z" fill="white"/>
<path d="M27.0305 109.016L27.0335 108.974C27.0528 109.017 27.0528 109.017 27.0305 109.016Z" fill="white"/>
<path d="M33.3459 99.9908C33.3459 99.9908 33.3429 100.033 33.3459 99.9908L33.3652 100.034L33.3459 99.9908Z" fill="white"/>
<path d="M33.3566 100.156C33.3134 100.153 33.3192 100.072 33.3437 100.033C33.2818 99.9874 33.2572 100.026 33.2514 100.108C33.2672 100.19 33.3192 100.072 33.3566 100.156Z" fill="white"/>
<path d="M36.2981 95.3231L36.3513 95.4902C36.3326 95.448 36.3168 95.3653 36.2981 95.3231Z" fill="white"/>
<path d="M24.7292 113.363L24.7452 113.447C24.7482 113.406 24.7511 113.364 24.7292 113.363Z" fill="white"/>
<path d="M22.3828 115.596C22.3641 115.553 22.3454 115.511 22.3267 115.469L22.3828 115.596Z" fill="white"/>
<path d="M16.2918 120.283L16.3105 120.325L16.2976 120.202C16.2731 120.241 16.2731 120.241 16.2918 120.283Z" fill="white"/>
<path d="M20.7102 116.9L20.7288 116.942C20.7719 116.945 20.8423 116.869 20.9155 116.752L20.8439 116.544L20.7102 116.9Z" fill="white"/>
<path d="M17.5223 114.556L17.8122 114.739C17.4069 115.564 17.0222 115.496 16.7433 116.371L16.7304 116.248C16.6443 116.242 16.9252 117.156 15.8759 117L15.8573 116.958C15.8328 116.997 15.8701 117.081 15.7869 117.034L15.9964 117.131C15.9604 117.331 15.9646 117.576 15.8885 117.733C15.8454 117.73 15.8081 117.646 15.7895 117.604L15.5883 117.996L15.4247 117.862C15.4074 118.105 15.6339 118.569 15.3325 118.547C15.5305 118.805 15.3309 118.872 15.4055 119.04C15.3868 118.998 15.3251 118.953 15.2821 118.95C15.1815 119.146 15.0234 119.541 15.0491 119.787C15.0491 119.787 15.751 119.959 16.0164 120.182C15.8355 120.291 15.9862 120.302 16.0695 120.348L16.0566 120.225C16.1887 120.194 16.2604 120.402 16.3465 120.409L16.3278 120.367L16.325 120.407C16.3063 120.365 16.3092 120.325 16.2877 120.323C16.269 120.281 16.2504 120.239 16.2963 120.202L16.2935 120.242C16.3208 120.163 16.3912 120.086 16.4342 120.09L16.5059 120.298C16.43 119.845 17.1821 120.224 17.2769 120.109C17.4649 120.204 17.4536 119.756 17.6288 119.728C17.837 119.539 17.8354 119.864 17.9833 119.916C18.1369 119.886 17.8685 119.704 17.9145 119.667L18.1484 119.724C18.0752 119.841 18.1555 119.928 18.1957 119.971C18.3336 119.859 18.6536 119.923 18.5318 119.508C18.75 119.483 18.8275 119.61 18.8979 119.534C18.8577 119.49 18.7716 119.484 18.7558 119.402C18.8792 119.492 18.7616 119.321 18.7401 119.319C18.7819 119.037 19.4995 119.292 19.3777 118.877L19.415 118.961C19.3304 118.629 19.1755 118.374 19.1742 118.09L19.2761 118.178L19.2935 117.936C19.3767 117.982 19.3896 118.105 19.4111 118.107C19.4744 117.826 19.6955 117.761 19.8363 117.608L19.3844 116.966C19.5753 117.02 19.9356 117.128 19.851 116.796L20.0332 116.972C20.471 117.206 20.1081 116.53 20.2588 116.541L20.487 116.679L20.3678 116.833C20.5401 116.845 20.6262 116.852 20.7927 116.945C20.7711 116.943 20.7711 116.943 20.774 116.903L20.7984 116.864C20.7454 116.697 20.7814 116.497 20.8547 116.38C20.9925 116.268 20.997 115.902 21.2927 116.005L21.2111 115.633L21.4264 115.648L21.5167 115.899C21.3759 116.051 21.1474 116.523 21.0009 116.756L21.0353 116.881C21.133 116.725 21.2178 116.447 21.2853 116.411C21.3284 116.414 21.5135 116.549 21.5148 116.834L21.4949 116.507C21.8339 116.003 21.8339 116.003 22.2819 115.791L22.2015 115.704C22.2346 115.543 22.2922 115.344 22.3854 115.554C22.6209 115.286 22.8909 115.143 23.1621 115.284L23.0776 114.953C23.1236 114.916 23.3588 115.258 23.2399 114.802L23.2817 114.52C23.352 114.444 23.3234 114.239 23.4713 114.29L23.4928 114.291C23.4928 114.291 23.4928 114.291 23.4742 114.249C23.6737 114.182 23.3623 113.997 23.605 113.933C23.747 114.066 23.5291 113.481 23.6181 113.446L23.8563 113.748C24.0902 113.806 23.9498 113.348 24.1667 113.038C24.3174 113.049 24.5125 113.348 24.5697 113.758C24.5212 113.226 24.5067 113.429 24.5729 113.108C24.6504 113.236 24.6475 113.276 24.6761 113.481C24.8455 113.534 24.6934 113.239 24.7638 113.162C24.6793 112.831 24.5231 112.291 24.5475 112.252L24.4858 112.207C24.5061 111.924 24.5636 111.725 24.7358 111.737L24.7889 111.904L24.8708 111.666L24.9454 111.834L25.0733 111.558L25.0331 111.515C25.0604 111.435 25.1424 111.197 25.25 111.205L25.2844 111.329C25.6045 111.393 25.5862 110.741 25.7816 110.429L25.7584 110.753C25.922 110.887 25.6553 110.38 25.7845 110.389L25.8963 110.641C25.842 110.19 26.0313 110.569 26.1332 110.658L25.984 110.322L26.119 110.25C26.2726 110.221 26.3543 110.592 26.4044 110.799L26.3658 110.431L26.4963 110.725C26.4205 110.272 26.5853 110.69 26.6085 110.367C26.6644 110.493 26.6586 110.573 26.7232 110.578L26.7264 109.928L26.7033 110.251L26.5413 109.793C26.5114 109.302 26.7036 109.641 26.718 109.439L26.7251 109.643C26.8099 109.364 26.8816 109.573 26.9893 109.581C26.9276 109.535 26.8472 109.448 26.8774 109.329C26.9047 109.249 26.9549 109.456 27.0195 109.461C26.9134 109.128 26.9337 108.845 27.06 108.894C27.0786 108.936 27.0972 108.978 27.0944 109.019C27.1001 108.938 27.0844 108.855 27.149 108.86L27.2522 109.233L27.1949 108.823C27.2782 108.869 27.2396 108.501 27.3299 108.751L27.3212 108.872L27.6731 108.491L27.785 108.743C27.6847 108.329 28.009 108.637 27.8255 108.176C27.9862 108.351 27.9923 107.66 28.1671 108.242C28.4027 107.974 28.3197 107.317 28.6729 107.221C28.9326 107.524 29.1396 107.051 29.3263 106.861C29.5879 106.229 29.7302 105.751 30.0104 105.161C30.4395 105.517 30.443 104.257 30.7875 104.281L30.746 103.953C31.0359 104.136 31.0693 103.366 31.4296 103.473C31.4412 103.311 31.447 103.231 31.4714 103.192C31.4498 103.19 31.4312 103.148 31.3537 103.021C31.4585 103.069 31.5247 102.748 31.6308 103.081L31.6279 103.122C31.7339 103.454 31.7429 102.723 31.9252 102.899L31.7731 102.603L31.911 102.491L31.9023 102.613C32.0897 101.203 32.7051 101.979 32.9053 100.692C32.9812 101.144 32.9284 100.368 33.0718 100.785C33.3716 101.132 33.2299 100.39 33.2932 100.11C33.2932 100.11 33.2745 100.068 33.2774 100.027L33.4642 99.8371C33.5471 100.494 33.4185 99.2646 33.4886 99.7982C34.0442 99.594 34.4511 98.4438 35.0054 97.9549L34.9251 97.8678C35.0658 97.7152 35.1565 97.3557 35.3258 97.4085C35.4923 97.5017 35.4123 96.8047 35.4396 96.7254C35.4656 96.3613 35.7253 96.6645 35.6578 96.7003C35.7369 96.5026 35.6726 95.8881 35.9123 95.8646C36.126 96.2052 36.1784 94.8671 36.3619 95.3275L36.3433 95.2855C36.6634 95.349 36.6351 94.5337 36.958 94.5568C36.958 94.5568 36.9767 94.5988 36.9738 94.6393L36.8629 92.5576L36.1243 91.0816L35.2505 90.2872L34.351 91.9714L33.3573 92.551L31.4638 95.4247L31.4664 95.9941C30.8477 95.8686 30.6144 97.3157 30.043 97.4375L30.1491 97.7704C30.0485 97.9665 29.9768 97.7581 29.9151 97.713C28.8492 99.304 27.8864 101.268 26.759 102.204C26.5925 102.111 26.3367 102.662 26.1947 102.53C26.0263 103.372 25.6901 103.836 25.3598 104.219L25.3627 104.178L25.2348 104.454C25.2132 104.452 25.1946 104.41 25.1975 104.37C25.1384 104.894 24.7636 104.989 24.5152 105.134L24.5181 105.094C23.277 106.713 22.3887 108.845 21.0258 110.049C20.2706 110.32 19.8965 111.92 19.0867 112.35C18.791 112.248 17.5856 114.276 17.5223 114.556Z" fill="white"/>
<path d="M15.769 117.603C15.7331 117.473 15.7495 117.559 15.769 117.603V117.603Z" fill="white"/>
<path d="M19.7968 117.566L19.8932 117.736L19.7968 117.566Z" fill="white"/>
<path d="M18.1257 120.049C18.218 119.974 18.2209 119.933 18.1806 119.89C18.156 119.929 18.1315 119.968 18.1257 120.049Z" fill="white"/>
<path d="M15.2323 118.743C15.1861 118.781 15.2235 118.865 15.2855 118.91C15.3129 118.831 15.3374 118.792 15.3374 118.792C15.3158 118.79 15.2755 118.746 15.2323 118.743Z" fill="white"/>
<path d="M16.0739 120.308L16.1084 120.433C16.1113 120.393 16.1142 120.352 16.0739 120.308Z" fill="white"/>
</svg>
