<svg width="80" height="22" viewBox="0 0 80 22" fill="none" xmlns="http://www.w3.org/2000/svg">
<path d="M37.4935 6.10379C37.4358 6.33561 37.9547 6.45152 38.1277 6.45152C38.0124 7.14698 36.7439 7.03107 36.2826 7.4947C36.1096 7.37879 36.052 7.3788 35.879 7.32084C35.4754 7.26289 35.0718 7.55266 34.6105 7.84243C33.3996 8.47993 33.8609 7.4947 30.459 8.6538C29.8824 9.17539 27.8067 8.71175 26.3075 9.9288C25.4426 10.6822 23.4823 10.5084 22.1561 11.4356C21.4065 12.0152 20.4263 11.6095 17.9469 13.0584C16.1018 12.8265 15.064 14.1595 14.1414 14.4493C12.4116 14.9709 12.7576 14.5072 5.0889 19.3175C4.05104 19.955 3.24383 22.2152 1.68702 21.9834C-0.273393 21.6936 0.0148895 17.9266 0.0148895 17.9266C0.0725489 17.9266 0.822106 16.4777 1.80231 16.2459C4.74294 13.2322 5.95379 14.2175 10.8548 11.8413C10.8548 12.0152 14.6027 9.81289 15.0063 9.87085C15.237 9.9288 15.1793 10.3345 15.3523 10.3345C15.5252 10.3345 16.6784 8.76971 17.7163 8.94357H17.6586C17.6586 8.94357 22.675 8.13221 22.7903 7.20493C22.7903 7.26289 25.7886 6.04584 26.8841 6.2197C27.4607 6.27766 26.9418 7.03107 27.1724 7.03107C27.3454 7.03107 28.1526 6.79925 28.5563 6.50947C28.6139 6.50947 28.7869 6.62538 28.9022 6.62538C29.1328 6.68334 29.8824 6.39357 29.9401 5.98788C29.9401 5.92993 29.8824 5.81402 29.8824 5.64015C29.9401 5.11856 32.1888 4.36515 32.4771 4.4231C33.515 4.53901 33.1114 3.61174 34.0339 3.7856C34.4375 4.01742 34.7258 3.7856 34.9564 4.4231C34.2645 4.3072 33.8033 4.59697 33.4573 5.11856C34.0339 5.17652 34.4952 5.00265 34.8411 5.06061C34.8988 5.17652 35.0141 5.17652 35.1871 5.17652C35.1871 5.17652 37.2628 5.06061 37.3781 4.19129C37.3781 4.01742 37.2052 3.61174 37.2052 3.49583C37.2052 3.32196 37.4358 3.26401 37.8394 3.32197C38.1854 3.43787 38.416 3.49583 38.416 3.66969C38.416 3.72765 38.0124 4.07538 38.0124 4.13333C38.0124 4.19129 38.6467 4.65492 38.589 4.77083C38.589 4.9447 38.0701 5.23447 37.6088 5.5822C37.7818 5.69811 37.8394 5.87197 37.8394 5.98788C37.8394 6.16175 37.7241 6.33561 37.4935 6.45152V6.10379ZM10.2206 13.4061L10.3359 13.3481C10.3359 13.2902 10.2782 13.2322 10.2782 13.2322C10.2206 13.2322 10.1053 13.2322 10.1053 13.4061C10.1629 13.4061 10.1629 13.522 10.2782 13.522L10.2206 13.4061ZM12.527 12.247C12.181 12.3049 12.0657 12.247 12.0657 12.3629C12.0657 12.3629 12.0657 12.4209 12.2387 12.4788C12.4117 12.4209 12.527 12.3629 12.527 12.247ZM12.9306 11.9572C12.7 11.8993 12.5846 12.0731 12.5846 12.189C12.8729 12.189 12.9306 12.1311 12.9306 11.9572ZM13.7378 11.7834C13.9108 11.7834 14.0261 11.7254 14.0261 11.6674C13.7378 11.7254 13.6802 11.7254 13.6802 11.7834L13.7378 11.8993V11.7834ZM15.3523 11.2618C15.3523 11.2618 15.1793 11.0879 15.1216 11.0299C14.6027 10.972 14.2567 11.2618 14.0261 11.6674C14.4297 11.7254 14.891 11.7834 15.1793 11.3777C15.2369 11.3197 15.3523 11.2618 15.3523 11.2618ZM14.6027 12.5368C14.6604 12.5368 14.7757 12.4788 14.7757 12.4788C14.718 12.4788 14.6027 12.3629 14.6027 12.3629C14.545 12.3629 14.4297 12.4209 14.4297 12.4209C14.4297 12.4788 14.4874 12.5947 14.6604 12.6527L14.6027 12.5368ZM16.5631 10.7402C16.2172 10.7981 16.1019 10.8561 16.1019 10.914C16.1019 10.972 16.1595 11.0879 16.2748 11.0879C16.3325 11.0879 16.5631 10.8561 16.6785 10.7981L16.5631 10.7402ZM16.1019 11.9572C16.1595 11.9572 16.2748 11.9572 16.2748 11.9572C16.2748 11.8993 16.2172 11.7834 16.1019 11.7834L15.9865 11.8413C15.9865 11.8993 16.0442 12.0152 16.2171 12.0731L16.1019 11.9572ZM18.1776 10.0447C17.4857 9.9288 16.9667 10.1606 16.6785 10.7402C17.0244 10.7981 17.5433 10.7981 17.428 11.4356C17.8893 11.4936 18.0623 11.0879 18.1776 10.0447ZM17.082 11.7834C17.082 11.8413 17.1397 11.8993 17.1397 11.8993C17.1974 11.8993 17.3127 11.8413 17.428 11.4936C17.1974 11.4356 17.082 11.4356 17.082 11.6095V11.6674V11.7834ZM19.1578 9.52312C18.8118 9.58107 18.3505 9.9288 18.2352 10.1027C18.4082 10.1027 18.4659 10.2186 18.6388 10.2765C18.8118 10.2765 19.1001 10.1606 19.1578 10.1027C19.0425 10.0447 19.2155 9.9288 19.1578 9.52312ZM21.0029 9.23335C21.2335 9.2913 21.4065 9.2913 21.7525 9.00153C21.5795 9.00153 21.4065 8.94357 21.3488 8.94357C21.1759 8.94357 21.1182 8.88562 20.8876 9.05948C20.8876 9.05948 20.9452 9.23335 21.0029 9.34926V9.23335ZM20.9452 11.1459C21.0029 11.1459 21.1182 11.1459 21.1182 11.1459C21.1182 10.972 21.0606 10.8561 20.8876 10.8561C20.8876 10.8561 20.7723 10.914 20.7723 11.0299L20.8299 11.1459H20.9452ZM22.6174 8.6538C22.0984 8.59584 21.7524 8.53789 21.6948 8.94357C22.0984 9.05948 22.3867 9.17539 22.6174 8.6538ZM22.2714 10.6243C22.0407 10.5663 21.8101 10.6243 21.8101 10.7402C21.8101 10.7981 21.8101 10.7981 22.0408 10.8561C22.2137 10.7981 22.2137 10.7402 22.2714 10.6243ZM23.1363 10.3345C22.6173 10.2765 22.2714 10.2186 22.2137 10.6243C22.2137 10.6243 22.3867 10.6243 22.5597 10.6822C22.9056 10.7402 23.021 10.6822 23.1363 10.3345ZM23.9435 8.36403C23.9435 8.30607 23.7705 8.19016 23.6552 8.13221C23.4246 8.07425 22.7327 8.42198 22.5597 8.76971C23.1363 8.82766 23.3093 8.88562 23.8859 8.59585C23.9435 8.53789 23.9435 8.42198 23.9435 8.36403ZM23.5976 10.1027C23.4246 10.1027 23.1939 10.0447 23.1363 10.2765C23.5975 10.2765 23.5976 10.2765 23.5976 10.1027ZM24.4625 9.00153C24.4625 9.17539 24.6354 9.11744 24.7508 9.2913C24.7508 9.11744 24.8084 8.94357 24.8084 8.88562C24.6354 8.88562 24.4625 8.94357 24.4625 9.00153ZM24.7508 9.34926C24.8084 9.63903 24.7507 9.81289 24.8661 9.81289C24.9237 9.81289 24.9237 9.81289 25.0391 9.75494C25.0967 9.46517 24.9237 9.34926 24.7508 9.34926ZM25.6733 8.94357C25.731 8.71175 25.4427 8.6538 25.385 8.6538C25.212 8.6538 25.039 8.71175 24.8084 8.94357C25.039 9.00153 25.212 9.00153 25.5003 9.05948C25.558 9.00153 25.558 9.00153 25.6733 8.94357ZM25.1543 7.72652C25.1543 7.78448 25.212 7.84243 25.385 7.84243C25.4427 7.84243 25.558 7.66857 25.6157 7.61061C25.5003 7.61061 25.1543 7.55266 25.1543 7.72652ZM25.6157 7.61061C25.9616 7.66857 26.0193 7.66857 26.0769 7.4947C26.0769 7.32084 25.9039 7.32084 25.9039 7.32084C25.7886 7.3788 25.731 7.4947 25.6733 7.66857L25.6157 7.61061ZM26.6535 9.23335C26.1922 9.40721 26.3075 9.46517 26.2499 9.52312C26.2499 9.52312 26.2499 9.52312 26.4229 9.52312C26.5382 9.58107 26.6535 9.40721 26.6535 9.23335ZM27.1148 9.11744C27.1148 8.94357 27.0571 8.94357 26.9418 8.94357C26.7688 9.00153 26.6535 9.17539 26.6535 9.23335C26.9995 9.23335 27.1148 9.23335 27.1148 9.11744ZM28.4409 6.16175C28.0373 6.10379 27.6337 5.92993 27.1148 5.87197C27.2301 5.00265 27.6337 5.06061 27.9797 5.11856C28.2103 5.17652 28.5563 5.29243 28.4986 5.81402C28.4986 5.92993 28.4986 5.98788 28.4409 6.16175ZM27.922 9.00153C28.095 8.94357 28.268 8.53789 28.268 8.24812C28.268 8.19016 28.2103 7.95834 28.1526 7.78448C27.749 8.07425 27.5184 7.95834 27.5184 8.19016C27.5184 8.36403 27.922 8.94357 28.0373 8.94357L27.922 9.00153ZM29.0752 8.71175L29.1905 8.6538C29.1905 8.59584 29.1328 8.47993 29.0175 8.47993H28.8446C28.8446 8.6538 28.9022 8.76971 29.0752 8.76971V8.71175ZM29.1905 7.95834C29.1905 7.90039 29.3635 7.90039 29.3635 7.78448C29.3635 7.61061 29.3058 7.61061 29.1329 7.55266C29.0752 7.55266 29.0175 7.61061 29.0175 7.61061C29.0175 7.66857 29.0752 7.72652 29.0752 7.78448L29.1905 7.95834ZM30.1707 7.55266C30.2284 7.55266 30.3437 7.4947 30.3437 7.4947C30.3437 7.43675 30.3437 7.32084 30.286 7.32084C30.1131 7.32084 29.9977 7.3788 29.9977 7.43675C29.9977 7.49471 29.9978 7.4947 30.2284 7.55266H30.1707ZM31.0356 8.30607C31.0933 8.30607 31.2086 8.13221 31.2663 7.95834C31.0933 8.13221 30.9203 8.19016 30.9203 8.19016C30.9203 8.24812 30.978 8.36403 31.0933 8.36403L31.0356 8.30607ZM32.8807 7.84243C32.996 7.78448 33.0537 7.78448 33.1114 7.61061C33.1114 7.61061 32.8807 6.8572 32.5924 6.8572C31.8428 6.74129 31.3816 7.3788 31.1509 7.90039C31.3239 7.90039 31.3816 8.0163 31.5546 8.0163C31.9005 8.07425 32.4195 7.90039 32.8231 7.72652L32.8807 7.84243ZM31.9005 5.69811C31.9005 5.75606 31.7852 5.87197 31.7852 5.92993C31.8428 6.04584 32.0735 6.2197 32.1888 6.2197C32.4194 6.27766 32.6501 5.87197 32.7077 5.75606C32.7077 5.5822 32.4771 5.46629 32.3041 5.35038C32.3041 5.52424 32.0735 5.5822 32.0158 5.75606L31.9005 5.69811ZM34.9564 7.14698L35.0718 7.08902C35.1294 6.8572 34.4952 6.2197 34.0915 6.16175C33.5149 6.10379 33.2843 6.33561 32.8807 6.97311C33.0537 6.97311 33.2267 7.08902 33.3997 7.14698C33.6303 7.20493 33.8609 6.8572 34.0339 6.91516C34.2645 6.97311 34.3222 7.32084 34.5528 7.32084C34.6105 7.32084 34.7835 7.3788 35.0141 7.32084L34.9564 7.14698ZM33.2843 5.69811C33.2267 5.69811 33.169 5.75606 33.169 5.75606C33.169 5.75606 33.2267 5.75606 33.5149 5.87197C33.5149 5.81402 33.515 5.69811 33.5726 5.52424C33.4573 5.5822 33.3996 5.5822 33.2267 5.64015L33.2843 5.69811ZM35.5907 3.7856C35.7637 3.61174 36.1673 3.32196 36.3979 3.37992L36.4556 3.55378C36.3979 4.07538 36.225 4.01742 35.706 3.95947C35.6484 3.95947 35.706 3.84356 35.5907 3.7856ZM35.6484 6.68334C35.6484 6.50947 35.6484 6.2197 35.4754 6.2197C35.4177 6.2197 35.3601 6.27766 35.3601 6.39356C35.3024 6.50947 35.4754 6.62538 35.6484 6.68334ZM36.9745 6.74129C37.0322 6.39357 37.1475 6.2197 37.2052 5.87197C37.2628 5.64015 36.9745 5.46629 36.9169 5.46629C36.5709 5.92993 35.8214 6.62538 35.706 6.62538C35.6484 6.8572 35.8213 6.97311 35.879 7.08902C36.2826 7.14698 36.6862 7.32084 36.9745 6.79925V6.74129ZM79.8154 9.75494C79.8731 9.9288 80.0461 10.1606 79.9884 10.3924C79.8731 10.6243 79.6424 14.797 77.2784 14.4493C77.2784 14.3913 75.2027 13.464 75.318 12.5368C75.4333 12.4788 75.4333 12.3629 75.4333 12.189C75.491 11.6095 75.145 11.2038 75.2027 10.6822C75.318 9.81289 76.5865 9.46517 76.7018 8.53789C76.8171 7.61061 74.8567 6.8572 72.8386 6.62538C72.435 6.56743 72.3773 6.2197 72.1467 6.16175C71.9737 6.16175 71.6855 6.33561 71.4548 6.33561C71.1089 6.27766 71.1088 5.75606 70.7052 5.69811C70.4746 5.64015 70.244 6.04584 69.9557 6.04584C69.725 5.98788 69.4367 5.46629 69.0908 5.40834C68.7448 5.35038 68.2835 5.64015 68.2259 5.64015C68.0529 5.64015 67.9376 5.23447 67.7646 5.23447C67.707 5.23447 67.3034 5.5822 67.1304 5.5822C66.6114 5.52424 66.2078 5.35038 65.4582 5.23447C65.1123 5.17652 64.7087 5.46629 64.1321 5.40834C63.4402 5.29243 62.2293 5.06061 61.7104 5.00265C60.2112 4.77083 59.231 5.46629 58.3661 5.35038C58.0202 5.29243 57.7895 5.17652 57.5589 5.11856C56.8093 5.00265 56.0021 5.69811 55.2525 5.5822C55.1949 5.5822 55.0796 5.5822 55.0219 5.46629C54.503 5.40833 53.2921 6.10379 52.5425 5.98788C52.3696 5.98788 52.1966 5.52424 51.9083 5.46629C51.0434 5.35038 49.8326 6.2197 49.3136 6.16175C49.1406 6.16175 48.91 5.98788 48.737 5.98788C47.8721 5.87197 47.1802 6.62538 46.2577 6.50947C46.2 6.50947 46.027 6.45152 45.9117 6.39356C45.4504 6.74129 44.1243 6.91516 44.1243 6.91516C44.0666 6.91516 43.8937 6.79925 43.7783 6.79925C42.8558 6.68334 42.2215 7.90039 40.4918 7.66857C40.3188 7.66857 40.1458 7.55266 40.0881 7.55266C39.8575 7.4947 39.4539 7.78448 39.1079 7.78448C38.8773 7.72652 38.5313 7.61061 38.3007 7.55266C38.416 6.50947 39.3386 6.79925 39.6845 5.46629C40.4341 5.75606 39.6845 6.50947 40.3764 6.62538C41.2413 6.74129 43.1441 5.87197 43.2594 5.87197C45.8541 6.2197 44.9892 4.01742 47.2379 4.30719C47.4109 4.30719 47.8145 4.9447 48.6794 5.06061C48.737 5.06061 48.8524 4.88674 48.8524 4.88674C48.737 4.4231 48.0451 3.37992 48.0451 3.37992C48.0451 3.32196 48.1604 3.03219 48.2758 3.03219C48.4487 3.03219 48.5064 3.1481 48.6794 3.20606C49.7173 3.32196 49.256 1.69923 50.3515 1.8731C50.6974 1.93105 50.9281 2.80037 51.7353 2.91628C52.3119 2.97424 51.1587 4.4231 53.811 4.77083C53.8687 4.77083 53.984 4.71288 53.984 4.59697C54.0417 4.07538 53.5228 2.97424 53.5228 2.85833C53.5804 2.33673 54.9066 2.16287 55.2525 2.22083C55.4255 2.22083 55.6561 2.45264 55.8291 2.45264C56.3481 2.5106 56.5787 1.93105 56.867 1.69923C57.3283 2.27878 56.6363 2.62651 57.7319 2.80037C57.9049 2.04696 58.6544 2.5106 58.6544 2.22083C58.7121 1.98901 58.3661 1.64128 58.4238 1.46741C58.6544 1.06173 60.3265 0.945821 60.6148 1.00378C60.7878 1.00378 61.1914 1.06173 61.1914 1.3515C61.1338 1.75719 60.3266 1.2356 60.2113 1.98901C60.2113 2.04696 60.2689 2.33673 60.3265 2.33673C60.5572 2.39469 60.7878 2.04696 61.1338 2.10492C62.1717 2.22083 61.5374 2.97424 62.1717 3.20606C62.2293 3.20606 62.4023 3.26401 62.6329 3.09015C62.3446 2.68446 62.4023 2.27878 62.4599 1.93105C63.4978 2.04696 64.3627 2.27878 65.2276 2.39469C65.4582 2.45264 65.6889 2.39469 65.6889 2.04696C65.2853 1.98901 64.4781 1.8731 64.5357 1.52537C65.1123 1.52537 65.4582 1.11969 66.0348 1.23559C67.3033 1.40946 68.4565 1.81514 69.6097 1.98901C70.0133 2.04696 70.3593 1.64128 70.9935 1.75719C71.3971 1.81514 72.0891 2.45264 72.262 2.45264C72.3197 2.45264 72.5503 2.33673 72.7233 2.33673C72.8963 2.33673 73.0116 2.74242 73.3576 2.85833C75.7216 3.20606 76.1252 4.01742 76.6442 4.71288C76.6442 4.71288 79.0082 7.03107 78.9505 7.32084C78.8929 7.55266 78.4316 7.78448 78.4316 7.95834C78.4316 8.0163 79.3541 9.46517 79.4118 10.1027L79.8154 9.75494ZM39.4539 4.01742C39.6845 4.07538 39.6845 4.4231 39.6845 4.4231C39.4539 4.36515 39.3386 4.3072 39.3962 4.19129C39.3386 4.01742 39.3386 4.01742 39.4539 4.01742ZM40.2611 2.91628C40.2034 2.91628 40.1458 2.97424 40.0881 2.97424C40.0305 2.97424 40.0305 2.85833 40.0305 2.80037C40.0305 2.74242 40.2035 2.74242 40.2035 2.62651C40.2611 2.74242 40.3764 2.80037 40.3764 2.80037C40.3764 2.80037 40.2611 2.85833 40.2611 2.97424V2.91628ZM40.3188 3.84356C40.3188 3.66969 40.6071 3.72765 40.7801 3.72765C40.8377 3.84356 41.0107 3.95947 41.0107 4.01742C41.0107 4.07538 40.8377 4.07538 40.6647 4.13333C40.5494 4.13333 40.3188 3.95947 40.3188 3.84356ZM41.472 2.91628C41.4143 2.91628 41.2413 2.85833 41.1837 2.68446C41.2413 2.45264 41.5296 2.22083 41.9332 2.10492C42.1062 2.10492 42.3369 2.16287 42.3369 2.33673C42.3369 2.39469 41.9332 2.80037 41.472 2.85833V2.91628ZM43.7783 3.32197C43.49 3.55378 43.2018 3.61174 42.9135 3.55378C42.5675 3.49583 42.3945 3.37992 42.2792 3.20606C42.4522 3.20606 43.3747 2.85833 43.6053 2.85833C43.6053 2.85833 44.1819 3.09015 44.1819 3.20606C44.1819 3.26401 44.0666 3.37992 44.009 3.37992L43.7783 3.32197ZM42.9135 2.10492C42.9711 1.75719 43.5477 1.93105 43.7783 1.98901C43.5477 2.39469 43.5477 2.39469 43.2018 2.33673C43.0288 2.27878 42.9135 2.16287 42.9135 2.10492ZM43.8936 1.8731C43.8936 1.69923 44.0666 1.69923 44.3549 1.75719C44.2973 1.81514 44.2396 1.81514 43.8936 1.8731ZM44.5279 4.24924C44.5856 4.24924 44.8738 4.36515 44.7585 4.65492C44.7009 4.65492 44.5279 4.53901 44.4702 4.36515C44.4126 4.19129 44.4126 4.19129 44.5279 4.24924ZM45.5658 2.80037C45.3928 2.68446 45.3351 2.56855 45.3351 2.5106C45.4504 2.45264 45.5081 2.33673 45.6234 2.39469C46.4883 2.5106 46.2 2.74242 46.4307 2.74242C46.2577 2.91628 46.0847 2.85833 45.7964 2.85833C45.7388 2.85833 45.5658 2.80037 45.4504 2.80037H45.5658ZM45.9117 1.69923C45.9694 1.46741 46.1424 1.3515 46.373 1.40946C46.373 1.58332 46.2577 1.75719 46.0847 1.81514C46.1424 1.81514 45.8541 1.8731 45.9117 1.69923ZM47.4109 1.75719C47.4109 1.75719 47.4109 1.81514 47.2956 1.81514C47.0649 1.75719 46.6037 1.64128 46.373 1.52537C46.4883 1.17764 47.0073 0.829912 47.4109 0.887866C47.5839 0.887866 47.6992 1.17764 47.6992 1.46741C47.6992 1.64128 47.5262 1.52537 47.4685 1.81514L47.4109 1.75719ZM47.0649 2.33673C47.1226 2.33673 47.2379 2.27878 47.3532 2.27878C47.3532 2.27878 47.4109 2.27878 47.4109 2.39469C47.4109 2.56855 47.3532 2.62651 47.1802 2.62651C47.1226 2.62651 47.1226 2.45264 47.0073 2.45264L47.0649 2.33673ZM50.8704 4.77083C51.1587 4.65492 51.2164 4.53901 51.2741 4.36515C51.3317 4.13333 51.1011 3.66969 50.7551 3.32197C50.8128 3.32197 49.6019 3.49583 49.6019 3.7856C49.6019 3.7856 49.7172 5.00265 50.1785 5.11856C50.3515 5.11856 50.6398 5.11856 50.9281 4.88674L50.8704 4.77083ZM52.0236 0.829912C51.793 0.771957 51.5047 0.656048 51.5624 0.482183C51.9083 0.0185456 52.4272 -0.0394092 52.7155 0.0185455C53.0615 0.0765002 53.2921 0.0765002 53.2345 0.598093C53.2345 0.771957 52.9462 0.829912 52.8308 0.887866C52.6579 0.887866 52.4272 0.771957 52.1389 0.714003L52.0236 0.829912ZM56.5787 3.55378C56.6363 3.32196 56.1174 3.03219 55.9445 3.03219C55.4255 2.97424 54.6183 3.26401 54.5606 3.90151C54.5606 3.95947 54.6183 4.07538 54.7336 4.07538C55.1372 4.13333 55.1949 3.90151 55.5408 3.90151C55.4832 4.13333 55.7138 4.36515 55.8868 4.36515C56.0598 4.36515 56.4057 4.24924 56.4057 4.19129C56.521 4.07538 56.521 3.72765 56.5787 3.55378ZM56.1751 2.5106C56.1751 2.56855 56.0021 2.56855 55.8291 2.62651C55.8291 2.56855 55.9445 2.39469 56.0598 2.27878C56.0598 2.27878 56.1174 2.27878 56.1174 2.39469L56.1751 2.5106ZM58.2508 3.72765C58.2508 3.72765 58.3661 3.66969 58.3661 3.55378C58.4238 3.1481 58.0779 2.97424 57.6166 2.91628C57.6166 3.09015 57.5589 3.26401 57.5589 3.32197C57.5012 3.55378 57.5589 3.7856 58.0202 3.84356C58.0778 3.84356 58.1932 3.84356 58.3661 3.72765H58.2508ZM61.8834 4.19129C61.8834 4.13333 61.8834 4.13333 61.8834 4.01742C61.8834 3.84356 59.5193 3.1481 59.3464 2.45264C59.0004 2.39469 58.8851 2.56855 58.7698 3.32197C58.7121 3.55378 58.7698 3.84356 58.9427 3.84356C59.2887 3.90151 59.1734 3.49583 59.5193 3.20606C59.577 3.37992 59.9806 4.24924 60.8455 4.36515C61.1915 4.4231 61.5374 4.3072 61.8257 4.07538L61.8834 4.19129ZM62.6329 0.714003C62.5753 0.714003 62.46 0.714002 62.287 0.656048C62.114 0.656048 61.941 0.598093 61.9987 0.424229C61.9987 0.366274 61.9987 0.250365 62.287 0.19241C62.5176 0.250365 62.5753 0.482184 62.6329 0.714003ZM66.0925 4.30719L66.2078 4.24924C66.2655 3.72765 65.7466 3.20606 65.4006 3.1481C64.8817 3.09015 65.0546 3.90151 64.7087 3.84356C64.3051 3.43787 64.651 2.97424 64.1321 2.91628C63.7861 2.85833 63.2672 3.1481 63.2095 3.32197C63.2095 3.32197 63.3825 4.48106 63.5555 4.48106C63.8438 4.4231 64.1321 4.19129 64.3627 4.24924C64.8816 4.3072 65.3429 4.48106 65.6889 4.53901C65.8619 4.53901 66.0348 4.42311 66.1502 4.24924L66.0925 4.30719ZM65.6889 2.22083C66.0349 2.10492 66.0348 1.98901 66.0925 1.93105C66.0348 1.93105 66.0348 1.93105 66.0348 1.93105C65.8619 1.8731 65.7466 2.04696 65.6889 2.22083ZM68.0529 4.48106C68.2259 4.48106 68.3989 4.4231 68.3989 4.36515C68.3989 4.19129 68.2259 3.72765 67.9953 3.66969C67.9376 3.66969 66.8421 3.7856 66.8421 3.95947C66.9574 4.24924 67.188 4.71288 67.2457 4.71288C67.3033 4.71288 67.707 4.36515 68.0529 4.36515V4.48106ZM68.2836 2.33673C68.2259 2.33673 68.1682 2.39469 68.1106 2.5106C68.1682 2.62651 68.1682 2.68446 68.2259 2.80037C68.2259 2.74242 68.3412 2.74242 68.3412 2.62651C68.3412 2.56855 68.3412 2.45264 68.1682 2.45264L68.2836 2.33673ZM70.0133 3.32197C70.0133 3.26401 70.0133 3.1481 70.071 2.97424C70.071 2.80037 70.1286 2.56855 69.9557 2.5106C69.7827 2.5106 69.7827 2.56855 69.725 2.74242C69.725 3.03219 69.725 3.20606 70.0133 3.32197ZM71.6278 5.11856C72.3774 5.23447 72.5503 5.23447 72.6657 4.36515C72.6657 4.19129 72.608 4.19129 72.5503 4.01742C72.5503 4.01742 71.8008 4.59697 71.4548 4.53901C71.2819 4.53901 70.8782 3.90151 70.5323 3.90151C70.5323 3.95947 69.9557 4.36515 69.898 4.59697C69.898 4.59697 71.0512 4.9447 71.7431 5.00265L71.6278 5.11856ZM70.0133 3.32197C69.9557 3.66969 70.1287 3.84356 70.4746 3.90151C70.5323 3.66969 70.3593 3.49583 70.0133 3.32197ZM71.1665 2.62651C70.9936 2.68446 70.8205 2.74242 70.7052 2.80037C70.7629 2.97424 71.1089 3.20606 71.1665 3.20606C71.2242 3.20606 71.3395 3.1481 71.3395 3.03219C71.3972 2.80037 71.3972 2.62651 71.0512 2.56855L71.1665 2.62651Z" fill="#FF6C4D"/>
</svg>
