<svg width="72" height="72" viewBox="0 0 72 72" fill="none" xmlns="http://www.w3.org/2000/svg">
<path d="M23.5 39.5H31.5V47.5C31.5 49.7 33.3 51.5 35.5 51.5C37.7 51.5 39.5 49.7 39.5 47.5V39.5H47.5C49.7 39.5 51.5 37.7 51.5 35.5C51.5 33.3 49.7 31.5 47.5 31.5H39.5V23.5C39.5 21.3 37.7 19.5 35.5 19.5C33.3 19.5 31.5 21.3 31.5 23.5V31.5H23.5C21.3 31.5 19.5 33.3 19.5 35.5C19.5 37.7 21.3 39.5 23.5 39.5Z" fill="#1A1A1A"/>
<path fill-rule="evenodd" clip-rule="evenodd" d="M36 9C21.0883 9 9 21.0883 9 36C9 50.9117 21.0883 63 36 63C50.9117 63 63 50.9117 63 36C63 21.0883 50.9117 9 36 9ZM0 36C0 16.1177 16.1177 0 36 0C55.8823 0 72 16.1177 72 36C72 55.8823 55.8823 72 36 72C16.1177 72 0 55.8823 0 36Z" fill="#1A1A1A"/>
</svg>
